<?xml version="1.0" encoding="UTF-8" standalone="no"?><!DOCTYPE svg PUBLIC "-//W3C//DTD SVG 1.1//EN" "http://www.w3.org/Graphics/SVG/1.1/DTD/svg11.dtd"><svg width="100%" height="100%" viewBox="0 0 3334 3334" version="1.1" xmlns="http://www.w3.org/2000/svg" xmlns:xlink="http://www.w3.org/1999/xlink" xml:space="preserve" xmlns:serif="http://www.serif.com/" style="fill-rule:evenodd;clip-rule:evenodd;stroke-linejoin:round;stroke-miterlimit:2;"><path d="M3028.056,308.711c102.817,100.111 104.898,264.639 4.683,367.352l-433.851,433.955l-503.262,503.367l-714.204,714.204l-526.261,170.876l158.804,-538.437l701.092,-700.988l488.693,-488.693l456.953,-456.849c100.111,-102.817 264.639,-105.002 367.352,-4.787Z" style="fill:#5fceff;fill-rule:nonzero;"/><path d="M2710.135,1724.423l165.361,914.01l-171.709,171.709l-608.161,-1196.757l503.262,-503.367l111.246,614.405Zm-506.384,-954.076l-488.693,488.693l-1143.58,-581.312l171.709,-171.709l1460.46,264.223l0.104,0.104Z" style="fill:#8b87c1;fill-rule:nonzero;"/><path d="M1381.422,2327.589l-84.397,598.066l-183.884,184.092l-257.979,-611.283l526.261,-170.876Z" style="fill:#ffb578;fill-rule:nonzero;"/><path d="M1013.966,1960.028l-158.804,538.437l-615.654,-262.35l186.798,-181.179l587.66,-94.908Z" style="fill:#ff4893;fill-rule:nonzero;"/><path d="M1715.005,1331.908c-11.453,-0.006 -22.743,-2.72 -32.947,-7.919l-1143.59,-581.322c-24.406,-12.405 -39.839,-37.562 -39.839,-64.939c0,-19.313 7.68,-37.854 21.337,-51.51l171.709,-171.709c16.865,-16.883 41,-24.432 64.479,-20.168l1460.46,264.223c39.322,7.114 65.826,45.325 58.714,84.647c-6.226,34.526 -36.566,59.884 -71.649,59.884c-4.359,0 -8.709,-0.391 -12.998,-1.17l-1422.944,-257.428l-73.772,73.783l1054.114,535.825c24.426,12.398 39.876,37.566 39.876,64.958c0,39.962 -32.884,72.846 -72.846,72.846c-0.034,0 -0.068,-0 -0.102,-0Zm988.782,1551.081c-27.382,0.002 -52.543,-15.436 -64.947,-39.847l-608.161,-1196.757c-5.392,-10.375 -8.207,-21.898 -8.207,-33.59c0,-39.962 32.884,-72.846 72.846,-72.846c27.613,0 52.946,15.7 65.235,40.427l562.694,1107.271l73.772,-73.772l-269.822,-1490.889c-0.749,-4.212 -1.126,-8.482 -1.126,-12.761c0,-39.962 32.884,-72.846 72.846,-72.846c35.003,0 65.302,25.229 71.641,59.653l276.607,1528.426c4.253,23.479 -3.294,47.608 -20.168,64.479l-171.709,171.709c-13.651,13.66 -32.191,21.343 -51.502,21.344Z" style="fill-rule:nonzero;"/><path d="M1113.14,3182.594c-29.226,-0.009 -55.74,-17.597 -67.112,-44.519l-246.522,-584.142l-588.555,-250.809c-26.81,-11.414 -44.299,-37.867 -44.299,-67.006c0,-19.702 7.995,-38.584 22.143,-52.296l186.798,-181.179c10.712,-10.392 24.364,-17.245 39.098,-19.627l564.412,-91.151l1630.088,-1629.89c62.471,-64.167 147.107,-99.893 237.634,-99.893c87.238,0 169.669,33.551 232.108,94.471c63.615,61.94 99.31,145.026 100.444,233.888c1.124,88.883 -32.427,172.864 -94.513,236.49l-1634.718,1634.947l-80.994,573.965c-2.206,15.633 -9.436,30.134 -20.595,41.304l-183.884,184.082c-13.657,13.672 -32.209,21.363 -51.533,21.365Zm-744.227,-970.518l514.803,219.371c17.377,7.407 31.21,21.289 38.556,38.692l215.874,511.494l90.152,-90.246l80.994,-573.986c2.213,-15.645 9.45,-30.155 20.615,-41.335l1651.307,-1651.504c34.258,-35.122 53.115,-82.306 52.48,-132.247c-0.498,-49.572 -20.848,-96.933 -56.466,-131.414c-34.8,-34.122 -81.668,-53.212 -130.405,-53.115c-50.456,-0.17 -98.857,20.258 -133.933,56.529l-1647.425,1647.238c-10.82,10.822 -24.781,17.961 -39.888,20.397l-565.015,91.255l-91.651,88.872Zm2341.222,-414.806c-39.96,-0.003 -72.841,-32.886 -72.841,-72.846c0,-19.314 7.681,-37.856 21.339,-51.513l214.48,-214.469c13.71,-14.103 32.564,-22.069 52.232,-22.069c39.962,0 72.846,32.884 72.846,72.846c0,19.671 -7.968,38.527 -22.074,52.238l-214.48,214.48c-13.641,13.674 -32.188,21.356 -51.502,21.333Zm95.741,390.143c-39.96,-0.003 -72.841,-32.886 -72.841,-72.846c0,-19.304 7.673,-37.837 21.318,-51.492l214.386,-214.48c13.614,-13.352 31.94,-20.839 51.008,-20.839c39.962,0 72.846,32.884 72.846,72.846c0,19.053 -7.475,37.366 -20.808,50.977l-214.386,214.48c-13.641,13.688 -32.198,21.379 -51.523,21.354Zm-1170.116,-1464.519c-39.96,-0.003 -72.841,-32.886 -72.841,-72.846c0,-19.314 7.681,-37.856 21.339,-51.513l214.48,-214.376c13.709,-14.096 32.559,-22.058 52.222,-22.058c39.962,0 72.846,32.884 72.846,72.846c0,19.676 -7.972,38.537 -22.085,52.248l-214.469,214.376c-13.639,13.669 -32.182,21.348 -51.492,21.323Zm-390.039,-95.532c-39.96,-0.003 -72.841,-32.886 -72.841,-72.846c0,-19.304 7.673,-37.837 21.318,-51.492l214.48,-214.584c13.613,-13.349 31.937,-20.834 51.003,-20.834c39.962,0 72.846,32.884 72.846,72.846c0,19.056 -7.477,37.371 -20.813,50.982l-214.48,214.584c-13.64,13.683 -32.193,21.37 -51.513,21.344Z" style="fill-rule:nonzero;"/><path d="M855.151,2571.332c-39.943,-0.044 -72.787,-32.924 -72.787,-72.867c0,-31.469 20.386,-59.545 50.308,-69.287l526.261,-170.876c7.265,-2.359 14.856,-3.56 22.494,-3.56c39.963,0 72.847,32.884 72.847,72.847c0,31.483 -20.409,59.566 -50.353,69.287l-526.261,170.876c-7.27,2.362 -14.865,3.57 -22.509,3.58Z" style="fill-rule:nonzero;"/><path d="M855.192,2571.332c-0.012,0 -0.024,0 -0.036,0c-39.962,0 -72.846,-32.884 -72.846,-72.846c0,-6.983 1.004,-13.929 2.981,-20.626l158.804,-538.426c9.11,-30.885 37.669,-52.236 69.87,-52.236c39.962,0 72.846,32.884 72.846,72.846c0,6.977 -1.002,13.918 -2.976,20.61l-158.804,538.426c-9.117,30.87 -37.65,52.219 -69.839,52.251Z" style="fill-rule:nonzero;"/></svg>