<?xml version="1.0" encoding="UTF-8" standalone="no"?><!DOCTYPE svg PUBLIC "-//W3C//DTD SVG 1.1//EN" "http://www.w3.org/Graphics/SVG/1.1/DTD/svg11.dtd"><svg width="100%" height="100%" viewBox="0 0 800 808" version="1.1" xmlns="http://www.w3.org/2000/svg" xmlns:xlink="http://www.w3.org/1999/xlink" xml:space="preserve" xmlns:serif="http://www.serif.com/" style="fill-rule:evenodd;clip-rule:evenodd;stroke-linejoin:round;stroke-miterlimit:2;"><g id="Layer_2"><g id="Layer_1-2"><g id="Backpack_Icon"><path id="Bottom" d="M133.974,158.854c0,-59.524 48.981,-108.504 108.504,-108.504l313.009,0c59.524,0 108.504,48.981 108.505,108.504l0,582.841c0,33.929 -27.919,61.848 -61.848,61.848l-406.322,0c-33.929,0 -61.848,-27.919 -61.848,-61.848l0,-582.841Z" style="fill:#c3c3c3;fill-rule:nonzero;stroke:#000;stroke-width:17.96px;"/><path id="Top" d="M555.487,50.35l-117.564,0l0,-7.384c0,-21.658 -17.822,-39.481 -39.481,-39.481c-21.658,0 -39.481,17.822 -39.481,39.481l0,7.384l-116.483,0c-59.524,0 -108.504,48.98 -108.504,108.504l0,97.547c0,59.524 48.98,108.504 108.504,108.504l313.01,0c59.524,0 108.504,-48.98 108.504,-108.504l0,-97.547c0,-59.524 -48.981,-108.504 -108.505,-108.504Zm-179.219,-5.585c0,-12.164 10.01,-22.174 22.174,-22.174c12.164,0 22.174,10.01 22.174,22.174l0,5.585l-44.349,0l0,-5.585l0.001,0Z" style="fill:#7b7b7b;fill-rule:nonzero;stroke:#000;stroke-width:17.96px;"/><g id="Pocket"><path id="Bottom-2" d="M199.957,690.55l0,-133.195c0,-35.714 29.388,-65.103 65.103,-65.103l266.768,0c35.713,0 65.101,29.388 65.101,65.101l0,133.198c0,35.714 -29.388,65.101 -65.101,65.102l-266.768,0c-35.714,0 -65.103,-29.389 -65.103,-65.103Z" style="fill:#7b7b7b;fill-rule:nonzero;"/><path id="Top-2" d="M199.957,567.523l0,-42.72c0,-17.857 14.694,-32.551 32.551,-32.551l331.87,0c17.857,0 32.55,14.694 32.55,32.55l0,42.722c0,29.761 -24.49,54.251 -54.251,54.251l-288.469,0c-29.762,0 -54.252,-24.49 -54.252,-54.252l0.001,0Z" style="fill:#ff7878;fill-rule:nonzero;stroke:#000;stroke-width:17.96px;"/></g><path id="Logo" d="M358.962,655.49c0,-2.976 2.449,-5.425 5.425,-5.425l69.193,0c2.976,0 5.425,2.449 5.425,5.425l0,40.306c0,2.976 -2.449,5.425 -5.425,5.425l-69.193,0c-2.976,0 -5.425,-2.449 -5.425,-5.425l0,-40.306Z" style="fill:#fff;fill-rule:nonzero;stroke:#000;stroke-width:17.96px;"/><g id="Straps"><path id="Right_Strap" d="M539.59,138.516c1.786,0 3.255,-1.47 3.255,-3.256l0,-8.728c0,-1.786 -1.469,-3.255 -3.255,-3.255l-22.705,0l0,-72.927l-32.45,0l0,72.927l-23.786,0c-1.786,0 -3.256,1.47 -3.256,3.256l0,8.727c0,1.786 1.47,3.255 3.256,3.256l23.786,0l0,169.788l-23.786,0c-1.786,0 -3.255,1.469 -3.256,3.255l0,8.728c0,1.786 1.47,3.255 3.256,3.256l23.786,0l0,249.256l-23.786,0c-1.786,0 -3.255,1.47 -3.256,3.256l0,8.727c0,1.786 1.47,3.256 3.256,3.256l23.786,0l0,215.506l32.45,0l0,-215.506l22.705,0c1.786,0 3.255,-1.469 3.255,-3.255l0,-8.728c0,-1.786 -1.469,-3.255 -3.255,-3.256l-22.705,0l0,-249.256l22.705,0c1.786,0 3.255,-1.47 3.255,-3.256l0,-8.728c0,-1.786 -1.469,-3.255 -3.255,-3.255l-22.705,0l0,-169.788l22.705,0Z" style="fill:#fab96f;fill-rule:nonzero;stroke:#000;stroke-width:5.5px;"/><path id="Left_Strap" d="M336.236,138.516c1.786,0 3.255,-1.47 3.256,-3.256l0,-8.727c0,-1.786 -1.47,-3.256 -3.256,-3.256l-23.786,0l0,-72.927l-32.45,0l0,72.927l-22.705,0c-1.786,0 -3.255,1.469 -3.255,3.255l0,8.728c0,1.786 1.469,3.255 3.255,3.256l22.705,0l0,169.788l-22.705,0c-1.786,0 -3.255,1.469 -3.255,3.255l0,8.728c0,1.786 1.469,3.255 3.255,3.256l22.705,0l0,249.256l-22.705,0c-1.786,0 -3.255,1.47 -3.255,3.256l0,8.728c0,1.786 1.469,3.255 3.255,3.255l22.705,0l0,215.506l32.45,0l0,-215.506l23.786,0c1.786,0 3.256,-1.47 3.256,-3.256l0,-8.727c0,-1.786 -1.47,-3.255 -3.256,-3.256l-23.786,0l0,-249.256l23.786,0c1.786,0 3.255,-1.47 3.256,-3.256l0,-8.728c0,-1.786 -1.47,-3.255 -3.256,-3.255l-23.786,0l0,-169.788l23.786,0Z" style="fill:#fab96f;fill-rule:nonzero;stroke:#000;stroke-width:5.5px;"/></g><g id="Clasps"><g id="Top_Right_Clasp"><path id="Shape" d="M472.547,374.704c-1.786,0 -3.255,1.469 -3.255,3.255l0,39.204c0,1.786 1.469,3.255 3.255,3.255l3.225,0c1.786,0 3.255,-1.469 3.255,-3.255l0,-26.144c0,-1.786 1.469,-3.255 3.255,-3.255l36.756,0c1.786,0 3.255,1.469 3.255,3.255l0,26.144c0,1.786 1.469,3.255 3.255,3.255l3.225,0c1.786,0 3.255,-1.469 3.255,-3.255l0,-39.204c0,-1.786 -1.469,-3.255 -3.255,-3.255l-56.227,0l0.001,0Z" style="fill:#fff;fill-rule:nonzero;stroke:#000;stroke-width:5.5px;"/><path id="Shape-2" d="M472.547,425.851c-1.786,0 -3.255,1.469 -3.255,3.255l0,2.198c0,1.786 1.469,3.255 3.255,3.255l56.227,0c1.786,0 3.255,-1.469 3.255,-3.255l0,-2.197c0,-1.786 -1.469,-3.255 -3.255,-3.255l-56.227,0l0,-0.001Z" style="fill:#fff;fill-rule:nonzero;stroke:#000;stroke-width:5.5px;"/></g><g id="Bottom_Right_Clasp"><path id="Shape-3" d="M472.547,596.732c-1.786,0 -3.255,1.469 -3.255,3.255l0,39.204c0,1.786 1.469,3.255 3.255,3.255l3.225,0c1.786,0 3.255,-1.469 3.255,-3.255l0,-26.143c0,-1.786 1.469,-3.255 3.255,-3.255l36.756,0c1.786,0 3.255,1.469 3.255,3.255l0,26.143c0,1.786 1.469,3.255 3.255,3.255l3.225,0c1.786,0 3.255,-1.469 3.255,-3.255l0,-39.204c0,-1.786 -1.469,-3.255 -3.255,-3.255l-56.227,0l0.001,0Z" style="fill:#fff;fill-rule:nonzero;stroke:#000;stroke-width:5.5px;"/><path id="Shape-4" d="M472.547,647.895c-1.786,0 -3.255,1.469 -3.255,3.255l0,2.198c0,1.786 1.469,3.255 3.255,3.255l56.227,0c1.786,0 3.255,-1.469 3.255,-3.255l0,-2.197c0,-1.786 -1.469,-3.255 -3.255,-3.255l-56.227,0l0,-0.001Z" style="fill:#fff;fill-rule:nonzero;stroke:#000;stroke-width:5.5px;"/></g><g id="Top_Left_Clasp"><path id="Shape-5" d="M268.112,374.704c-1.786,0 -3.255,1.469 -3.255,3.255l0,39.204c0,1.786 1.469,3.255 3.255,3.255l3.225,0c1.786,0 3.255,-1.469 3.255,-3.255l0,-26.144c0,-1.786 1.469,-3.255 3.255,-3.255l36.756,0c1.786,0 3.255,1.469 3.255,3.255l0,26.144c0,1.786 1.469,3.255 3.255,3.255l3.225,0c1.786,0 3.255,-1.469 3.255,-3.255l0,-39.204c0,-1.786 -1.469,-3.255 -3.255,-3.255l-56.227,0l0.001,0Z" style="fill:#fff;fill-rule:nonzero;stroke:#000;stroke-width:5.5px;"/><path id="Shape-6" d="M268.112,425.851c-1.786,0 -3.255,1.469 -3.255,3.255l0,2.198c0,1.786 1.469,3.255 3.255,3.255l56.227,0c1.786,0 3.255,-1.469 3.255,-3.255l0,-2.197c0,-1.786 -1.469,-3.255 -3.255,-3.255l-56.227,0l0,-0.001Z" style="fill:#fff;fill-rule:nonzero;stroke:#000;stroke-width:5.5px;"/></g><g id="Bottom_Left_Clasp"><path id="Shape-7" d="M269.193,596.732c-1.786,0 -3.255,1.469 -3.255,3.255l0,39.204c0,1.786 1.469,3.255 3.255,3.255l3.225,0c1.786,0 3.255,-1.469 3.255,-3.255l0,-26.143c0,-1.786 1.469,-3.255 3.255,-3.255l36.757,0c1.786,0 3.255,1.469 3.255,3.255l0,26.143c0,1.786 1.469,3.255 3.255,3.255l3.225,0c1.786,0 3.255,-1.469 3.255,-3.255l0,-39.204c0,-1.786 -1.469,-3.255 -3.255,-3.255l-56.227,0Z" style="fill:#fff;fill-rule:nonzero;stroke:#000;stroke-width:5.5px;"/><path id="Shape-8" d="M269.193,647.895c-1.786,0 -3.255,1.469 -3.255,3.255l0,2.197c0,1.786 1.469,3.255 3.255,3.255l56.227,0c1.786,0 3.255,-1.469 3.255,-3.255l0,-2.197c0,-1.786 -1.469,-3.255 -3.255,-3.255l-56.227,0Z" style="fill:#fff;fill-rule:nonzero;stroke:#000;stroke-width:5.5px;"/></g></g></g></g></g></svg>