<?xml version="1.0" encoding="UTF-8" standalone="no"?><!DOCTYPE svg PUBLIC "-//W3C//DTD SVG 1.1//EN" "http://www.w3.org/Graphics/SVG/1.1/DTD/svg11.dtd"><svg width="100%" height="100%" viewBox="0 0 800 800" version="1.1" xmlns="http://www.w3.org/2000/svg" xmlns:xlink="http://www.w3.org/1999/xlink" xml:space="preserve" xmlns:serif="http://www.serif.com/" style="fill-rule:evenodd;clip-rule:evenodd;stroke-linejoin:round;stroke-miterlimit:2;"><path d="M402.187,500c-93.625,-3.25 -362.5,22.875 -362.5,119.75c0,96.875 204.688,155.688 378.812,156.75c174.188,1.062 347.25,-56.625 353.813,-153.5c6.5,-96.875 -276.5,-119.75 -370.125,-123Z" style="fill:#89af50;fill-rule:nonzero;stroke:#000;stroke-width:18.93px;"/><path d="M387.625,157.75c-10.312,-0.875 -14.812,11.5 -21.688,20.938c-8.562,11.812 -20.187,28.375 -27.937,33.125c-7.75,4.75 -20.562,11.562 -18.875,22.688c1.75,11.187 22.312,16.438 22.312,16.438l-5.188,17.625l-27.062,41.25l-42.938,94.562l332.313,65.75c0,0 92.625,-33.812 102.75,-45.125c7.313,-8.188 8.625,-14.625 3.875,-25.812c-6.813,-16.062 -16.75,-27.563 -27.5,-43.5c-10,-14.812 -22.438,-34.375 -22.438,-34.375l9.562,-20.312c0,0 9.062,-12.375 7.75,-24.812c-1.625,-15.5 -10.75,-24.25 -19.75,-38.438c-9,-14.188 -24.938,-38.625 -24.938,-38.625l-9.125,-18.688c0,0 29.625,-4.625 27.438,-16.25c-2.125,-11.625 -11.125,-18.188 -16.25,-24.625c-5.188,-6.438 -27.5,-36.125 -37,-49.875c-9.438,-13.75 -22.25,-31.937 -31.812,-32.25c-10.25,-0.313 -17.75,12.5 -28.062,28.438c-10.312,15.938 -19.5,30.188 -31.437,40.625c-19.375,16.938 -40.5,37.75 -31.25,47.75c10.062,10.812 24.937,29.375 24.937,29.375l-9.438,13.875c0,0 -11.312,15.5 -21.062,26.5c-8.063,9.125 -17.188,20.188 -17.188,20.188l-20.625,-7.75c0,0 28.875,-19.687 29.688,-25.812c0.875,-6.813 0.125,-13.937 -17.188,-21.937c-16.062,-7.438 -28.437,-27 -33.625,-34.313c-5.188,-7.188 -10.062,-15.938 -18.25,-16.625l0.001,-0.003Z" style="fill:#4da852;fill-rule:nonzero;stroke:#000;stroke-width:18.93px;"/><path d="M572.25,188.312c20.438,-1.625 23.938,-16.438 45.188,-23.812c19.125,-6.625 29,0.125 29,0.125c0,0 1.75,6.375 -4.688,14.625c-3.875,4.938 -10,8.438 -11.188,14.125c-1.188,5.625 0.625,11.312 0.625,11.312c0,0 -27.062,27.062 -54.688,27.062c-27.625,0 -26,-13.625 -52.625,-18.125c-21.125,-3.562 -42.812,10.688 -42.812,10.688c0,0 4.437,-14.125 3.438,-20.75c-2.625,-17.375 -14,-29.25 -14,-29.25c0,0 15,-9.125 37,-6.188c22,2.938 46,21.625 64.75,20.188Z" style="fill:#367c2d;fill-rule:nonzero;stroke:#000;stroke-width:18.93px;"/><path d="M391.5,247.75c23.625,0.312 19.625,-12.188 37.188,-16.625c14.938,-3.812 28.125,-3.437 28.125,-3.437c0,0 0.063,9.5 -5,15.812c-3.812,4.75 -6,6.562 -6.313,12.188c-0.313,5.625 3.375,11.375 3.375,11.375c0,0 -8,-3.25 -22.312,4.438c-8.438,4.562 -14.5,17.25 -36,17.812c-17.812,0.5 -21.75,-6.312 -43.125,-10.688c-13.062,-2.688 -20.188,3.562 -20.188,3.562c0,0 10.125,-15.062 8.625,-23.375c-1.5,-8.312 -13.25,-13.25 -14.75,-19.188c7.437,-3 14.438,-3.562 28.75,-2.625c23.188,1.5 18.375,10.438 41.625,10.75l0,0.001Z" style="fill:#367c2d;fill-rule:nonzero;stroke:#000;stroke-width:18.93px;"/><path d="M467.5,309.188l-7.375,-15.375c0,0 9.125,0 17.375,-5.125c8.25,-5.125 15.375,-13.375 29.312,-11.375c13.938,2 24.188,25.875 58.312,25.875c28.438,0 30.75,-20.5 60.313,-20.188c31.5,0.312 40.125,16.812 40.125,16.812c0,0 -5.5,10.562 -5.188,19.125c0.312,8.563 8.312,23.125 8.312,23.125c0,0 -22.188,-8.375 -37.812,-7.812c-15.625,0.563 -37,24.188 -68,21.938c-31.625,-2.312 -38.125,-22.75 -60.875,-28.437c-22.75,-5.688 -29,0.312 -29,0.312l-5.5,-18.875l0.001,0Z" style="fill:#367c2d;fill-rule:nonzero;stroke:#000;stroke-width:18.93px;"/><path d="M535.188,400.562c21.625,0.563 24.438,14.938 44.938,13.75c20.5,-1.125 23.75,-14.562 49.062,-14c25.312,0.563 34.062,15.188 50.25,16.75c18.438,1.75 28.125,-2.75 28.125,-2.75c0,0 0.062,5 -7.625,15.25c-7.688,10.25 -22.75,23.312 -22.75,23.312l-122.938,2.25l-19.062,-54.562Z" style="fill:#367c2d;fill-rule:nonzero;stroke:#000;stroke-width:18.93px;"/><path d="M583,520.125c0,0 24.938,66.312 62.688,73c37.75,6.688 62.25,6.625 87.188,0.5c24.938,-6.062 38.125,-29.75 35.688,-53.438c-2.438,-23.687 -31.625,-40.125 -43.188,-52.312c-11.562,-12.188 -43.812,-60.812 -90.625,-66.938c-49.312,-6.375 -84.562,33.438 -84.562,33.438l32.812,65.75l-0.001,0Z" style="fill:#484e27;fill-rule:nonzero;stroke:#000;stroke-width:18.93px;"/><path d="M165.688,431.313c0,0 -32.25,-3.062 -50.5,11.562c-18.25,14.625 -23.125,36.5 -40.125,47.438c-17.063,10.938 -33.5,9.125 -46.25,26.188c-12.062,16.125 -10.563,40.625 -2.188,54.75c11.25,19.062 23.375,21.938 48.188,23.875c23.687,1.875 61.687,2.312 61.687,2.312l29.188,-166.125Z" style="fill:#484e27;fill-rule:nonzero;stroke:#000;stroke-width:18.93px;"/><path d="M482,391.688l-60.5,229.438l40.5,1.312c0,0 31.625,-2.75 51.438,-4.938c19.812,-2.188 51.062,-7.25 51.062,-7.25l36.875,-70.562l-119.375,-148Z" style="fill:#2f2f2f;fill-rule:nonzero;stroke:#000;stroke-width:18.93px;"/><path d="M96.312,593.062l-8.812,-7.688c0,0 4.938,-22 26.438,-78.688c21.5,-56.688 48.438,-123.25 58.312,-144.125c9.875,-20.938 18.688,-49.5 23.125,-52.812c4.375,-3.312 57.188,-6.625 115.562,-8.25c58.375,-1.625 163.375,0.562 166.688,2.188c3.312,1.625 -3.312,48.438 -3.312,48.438l-97.938,270.688l-185.938,-17.625l-94.125,-12.125l-0,-0.001Z" style="fill:#f19f40;fill-rule:nonzero;stroke:#000;stroke-width:18.93px;"/><path d="M339.625,635.375c0,0 24.063,0.562 48.313,-1.062c24.188,-1.625 82.75,-6.313 86.625,-9.625c3.875,-3.312 1.938,-66.312 4.188,-114.187c2.187,-47.875 3.062,-89.687 5.75,-96.562c2.062,-5.25 74,200.563 74,200.563l86.375,-15.375c0,0 -50.75,-98.062 -74.937,-140.438c-24.188,-42.375 -82.313,-155.875 -91.938,-155.625c-6.875,0.125 -58.875,116.813 -74.188,153.125c-18.438,43.625 -36.813,93.313 -49.438,128.75c-10.062,28.125 -14.75,50.438 -14.75,50.438l0,-0.002Z" style="fill:url(#_Radial1);fill-rule:nonzero;stroke:#000;stroke-width:18.93px;"/><path d="M363.625,608.062c-0.5,12.063 -2.125,25.812 -7.75,29.25c-5.562,3.438 -116,-12.438 -161.5,-18.062c-48.125,-5.938 -107.313,-19.188 -109.938,-22.188c-2.562,-3 -0.312,-20.625 4,-24.938c4.312,-4.312 5.25,10.125 5.25,10.125c0,0 69.625,13.75 100.688,17c49,5.187 129,15.875 138.062,13.312c9,-2.562 13.875,-28.688 21.875,-27.562c8,1.125 9.75,13.125 9.312,23.062l0.001,0.001Z" style="fill:#9c2d1b;fill-rule:nonzero;stroke:#000;stroke-width:18.93px;"/><path d="M485.625,411.312c-1.312,-2.75 -3.437,4.938 0.5,23.125c3.375,15.5 61.438,182.625 62.312,183.937c0.875,1.312 26.188,-1.312 26.188,-1.312l52,-19.312l-61.875,-55.438l-44.25,-68.75c0,-0.063 -33.937,-60.125 -34.875,-62.25Z" style="fill:#9c2d1b;fill-rule:nonzero;stroke:#000;stroke-width:18.93px;"/><path d="M627.375,613.688c0,0 -45.563,-37.375 -56.188,-49.5c-31.875,-36.25 -49.438,-74.75 -53.312,-81.625c-3.875,-6.875 -31.062,-62.875 -32.375,-66.75c-1.312,-3.875 0,-8.625 3.875,-2.562c3.875,6 21.75,40.375 36.625,63.75c3.625,5.625 34.25,50.375 42.125,58.875c33.25,35.938 68.313,58.875 68.313,58.875l-9.062,18.938l-0.001,-0.001Z" style="fill:#ea4133;fill-rule:nonzero;stroke:#000;stroke-width:18.93px;"/><path d="M551.875,662.188l-6,15.875c0,0 -0.875,8.188 0.438,9.875c1.312,1.75 78.188,-0.437 78.188,-0.437c0,0 -0.875,12.062 2.562,15.062c3.438,3 45.125,2.562 46.812,0.437c1.75,-2.125 2.125,-17.188 2.125,-17.188c0,0 24.938,1.312 27.5,0.438c2.562,-0.875 0,-21.938 0,-21.938l-27.938,-21.063l-123.687,18.938l0,0.001Z" style="fill:#a05c3c;fill-rule:nonzero;stroke:#000;stroke-width:18.93px;"/><path d="M548.438,629.125l-2.562,49l77.812,-1.75c0,0 0.438,-17.188 1.75,-18.062c3.062,-2.062 49,-5.188 51.125,-2.562c2.125,2.562 1.312,19.75 1.312,19.75l26.625,-1.312c0,0 0,-33.5 -1.312,-34.375c-1.312,-0.875 -113.437,-9.438 -124.188,-9.875c-10.812,-0.437 -31,-3.875 -30.562,-0.812l0,-0.002Z" style="fill:#c67c5d;fill-rule:nonzero;stroke:#000;stroke-width:18.93px;"/><path d="M655.875,508.75c0,0 -22.625,37.187 -52,62.312c-16.312,13.938 -29.25,31.375 -27.938,54.562c1,17.875 18.062,32.375 43.375,33.5c57.125,2.562 65.312,-31.375 68.313,-51.562c3,-20.188 0.312,-68.687 -0.438,-70.062c-1.938,-3.562 -11.312,14.938 -19.312,24.062c-9,10.312 -20.188,18.938 -20.188,18.938c0,0 10.125,-26.125 11.688,-43.813c1.5,-16.688 0.75,-30.062 -3.5,-27.937Z" style="fill:url(#_Radial2);fill-rule:nonzero;stroke:#000;stroke-width:18.93px;"/><path d="M399,95.875c-7.562,-5.562 -19.062,-4 -24.5,4.812c-5.438,8.812 -3.375,20.687 5.75,25.125c9.125,4.375 17,1.5 21.75,-4.563c4.75,-6.062 6.625,-18.312 -3,-25.375l0,0.001Z" style="fill:#fff;fill-rule:nonzero;stroke:#000;stroke-width:18.93px;"/><path d="M43.875,275.562c3,7.875 12.5,13.438 22.5,8.438c9.875,-4.938 10.125,-15.688 6,-23.312c-4.125,-7.625 -15.062,-8.062 -21.062,-5.188c-6,2.938 -10.75,11.375 -7.438,20.062Z" style="fill:#fff;fill-rule:nonzero;stroke:#000;stroke-width:18.93px;"/><path d="M695.438,153.625c-5.375,7.938 -5.562,17.938 1,23.687c6.562,5.75 18.687,5.188 25.062,-3.562c6,-8.187 4.562,-17.687 -1.562,-23.687c-6.125,-6 -19.125,-4.375 -24.5,3.562Z" style="fill:#fff;fill-rule:nonzero;stroke:#000;stroke-width:18.93px;"/><path d="M612.188,32.688c-5.062,5.375 -7,15.188 -0.188,21.125c5.75,5 15.312,3.812 19.875,-2.188c4.563,-6 2.813,-15.125 -1.187,-19.312c-3.938,-4.25 -12.688,-5.812 -18.5,0.375Z" style="fill:#fff;fill-rule:nonzero;stroke:#000;stroke-width:18.93px;"/><path d="M185.438,157.188c0,0 7.375,-22.688 11.438,-23.438c4.062,-0.75 13,23.438 13,23.438c0,0 19.125,1 20.625,5.125c1.5,4.062 -14.25,16.312 -14.25,16.312c0,0 6.125,21.125 3.562,23.188c-2.562,2.062 -23.188,-10.938 -23.188,-10.938c0,0 -17.062,16.312 -21.875,13.75c-4.812,-2.562 3.562,-25.5 3.562,-25.5c0,0 -16.562,-10.688 -16.813,-16.562c-0.25,-5.875 23.938,-5.375 23.938,-5.375l0.001,0Z" style="fill:#fff;fill-rule:nonzero;stroke:#000;stroke-width:18.93px;"/><defs><radialGradient id="_Radial1" cx="0" cy="0" r="1" gradientUnits="userSpaceOnUse" gradientTransform="matrix(190.45,0,0,190.45,562.775,632.93125)"><stop offset="0" style="stop-color:#f3ae3d;stop-opacity:1"/><stop offset="0.42" style="stop-color:#f3ae3d;stop-opacity:1"/><stop offset="0.54" style="stop-color:#f2a53c;stop-opacity:1"/><stop offset="0.73" style="stop-color:#f08c38;stop-opacity:1"/><stop offset="0.98" style="stop-color:#ec6333;stop-opacity:1"/><stop offset="1" style="stop-color:#ec5f32;stop-opacity:1"/></radialGradient><radialGradient id="_Radial2" cx="0" cy="0" r="1" gradientUnits="userSpaceOnUse" gradientTransform="matrix(103.83125,0,0,103.83125,619.88125,659.6625)"><stop offset="0" style="stop-color:#fff;stop-opacity:1"/><stop offset="0.04" style="stop-color:#fff;stop-opacity:1"/><stop offset="0.15" style="stop-color:#fdf4df;stop-opacity:1"/><stop offset="0.4" style="stop-color:#fadd9b;stop-opacity:1"/><stop offset="0.61" style="stop-color:#f7cb6a;stop-opacity:1"/><stop offset="0.76" style="stop-color:#f6c14b;stop-opacity:1"/><stop offset="0.85" style="stop-color:#f5bd40;stop-opacity:1"/><stop offset="1" style="stop-color:#f5bd40;stop-opacity:1"/></radialGradient></defs></svg>