<?xml version="1.0" encoding="UTF-8" standalone="no"?><!DOCTYPE svg PUBLIC "-//W3C//DTD SVG 1.1//EN" "http://www.w3.org/Graphics/SVG/1.1/DTD/svg11.dtd"><svg width="100%" height="100%" viewBox="0 0 512 523" version="1.1" xmlns="http://www.w3.org/2000/svg" xmlns:xlink="http://www.w3.org/1999/xlink" xml:space="preserve" xmlns:serif="http://www.serif.com/" style="fill-rule:evenodd;clip-rule:evenodd;stroke-linejoin:round;stroke-miterlimit:2;"><g><path d="M87.708,216.569c-1.87,-95.952 75.378,-112.283 76.157,-112.437l3.327,16.876l-1.664,-8.439l1.694,8.434c-2.61,0.536 -63.897,14.04 -62.316,95.229l-17.198,0.338l0,-0.001Z" style="fill:#fd8469;fill-rule:nonzero;stroke:#000;stroke-width:10.13px;"/><path d="M203.075,380.18c-1.87,-95.949 75.378,-112.283 76.157,-112.437l3.327,16.876l-1.664,-8.439l1.694,8.434c-2.61,0.536 -63.897,14.042 -62.316,95.229l-17.198,0.338l0,-0.001Z" style="fill:#fd8469;fill-rule:nonzero;stroke:#000;stroke-width:10.13px;"/></g><g><path d="M314.636,380.18l-17.198,-0.336c1.58,-81.187 -59.708,-94.695 -62.316,-95.229l3.357,-16.872c0.778,0.154 78.027,16.487 76.157,112.437Z" style="fill:#fc6f58;fill-rule:nonzero;stroke:#000;stroke-width:10.13px;"/><path d="M430.002,216.569l-17.198,-0.336c0.671,-34.536 -9.72,-61.067 -30.889,-78.855c-15.644,-13.151 -31.24,-16.338 -31.395,-16.37l3.327,-16.876c0.777,0.151 78.025,16.484 76.155,112.437Z" style="fill:#fc6f58;fill-rule:nonzero;stroke:#000;stroke-width:10.13px;"/></g><circle cx="258.865" cy="226.354" r="69.228" style="fill:#84dbff;stroke:#000;stroke-width:10.13px;"/><path d="M328.076,226.361c0,-38.229 -30.992,-69.221 -69.22,-69.221l0,138.441c38.231,0.003 69.22,-30.99 69.22,-69.22Z" style="fill:#31bafd;fill-rule:nonzero;stroke:#000;stroke-width:10.13px;"/><path d="M320.047,249.005l-122.381,0c-19.004,0 -35.367,-13.413 -39.095,-32.051l-15.345,-76.72c-4.935,-24.671 13.936,-47.688 39.095,-47.688l153.067,0c25.16,0 44.029,23.017 39.095,47.688l-15.345,76.72c-3.725,18.636 -20.088,32.051 -39.092,32.051l0.001,0Z" style="fill:#cfdbe6;fill-rule:nonzero;stroke:#000;stroke-width:10.13px;"/><path d="M335.389,92.546l-76.533,0l0,156.457l61.191,0c19.004,0 35.367,-13.413 39.095,-32.048l15.345,-76.72c4.932,-24.672 -13.936,-47.689 -39.098,-47.689Z" style="fill:#b8c9d9;fill-rule:nonzero;stroke:#000;stroke-width:10.13px;"/><circle cx="258.865" cy="57.506" r="52.439" style="fill:#fff;stroke:#000;stroke-width:10.13px;"/><path d="M311.295,57.506c0,-28.962 -23.476,-52.439 -52.439,-52.439l0,104.88c28.96,-0.001 52.439,-23.48 52.439,-52.441Z" style="fill:#e6f3ff;fill-rule:nonzero;stroke:#000;stroke-width:10.13px;"/><circle cx="419.244" cy="348.028" r="35.659" style="fill:#31bafd;stroke:#000;stroke-width:10.13px;"/><circle cx="98.486" cy="348.028" r="35.659" style="fill:#84dbff;stroke:#000;stroke-width:10.13px;"/><path d="M124.643,364.805l-52.334,0c-13.32,0 -23.312,-12.187 -20.699,-25.248l26.168,-130.834c1.973,-9.866 10.636,-16.97 20.699,-16.97c10.062,0 18.726,7.102 20.699,16.97l26.168,130.834c2.612,13.061 -7.382,25.248 -20.701,25.248Z" style="fill:#fff;fill-rule:nonzero;stroke:#000;stroke-width:10.13px;"/><path d="M445.401,364.805l-52.334,0c-13.32,0 -23.312,-12.187 -20.699,-25.248l26.168,-130.834c1.973,-9.866 10.636,-16.97 20.699,-16.97c10.062,0 18.726,7.102 20.699,16.97l26.168,130.834c2.612,13.061 -7.379,25.248 -20.701,25.248Z" style="fill:#e6f3ff;fill-rule:nonzero;stroke:#000;stroke-width:10.13px;"/><path d="M327.474,515.308l-45.99,0c-11.705,0 -20.485,-10.71 -18.19,-22.189l22.996,-114.976c1.735,-8.67 9.349,-14.913 18.19,-14.913c8.843,0 16.455,6.243 18.19,14.913l22.996,114.976c2.294,11.479 -6.486,22.189 -18.192,22.189Z" style="fill:#b8c9d9;fill-rule:nonzero;stroke:#000;stroke-width:10.13px;"/><path d="M236.228,515.308l-45.99,0c-11.705,0 -20.485,-10.71 -18.19,-22.189l22.996,-114.976c1.735,-8.67 9.349,-14.913 18.19,-14.913c8.843,0 16.455,6.243 18.19,14.913l22.996,114.976c2.294,11.479 -6.486,22.189 -18.192,22.189Z" style="fill:#cfdbe6;fill-rule:nonzero;stroke:#000;stroke-width:10.13px;"/><path d="M153.976,517.929c0,-28.962 23.479,-52.439 52.439,-52.439c28.96,0 52.439,23.479 52.439,52.439l-104.879,0l0.001,0Z" style="fill:#fd8469;fill-rule:nonzero;stroke:#000;stroke-width:10.13px;"/><path d="M258.857,517.929c0,-28.962 23.479,-52.439 52.439,-52.439c28.959,0 52.439,23.479 52.439,52.439l-104.879,0l0.001,0Z" style="fill:#fc6f58;fill-rule:nonzero;stroke:#000;stroke-width:10.13px;"/><rect x="199.883" y="34.789" width="117.961" height="29.491" style="fill:#b5f1f4;stroke:#000;stroke-width:10.13px;"/><rect x="258.865" y="34.789" width="58.981" height="29.491" style="fill:#84dbff;stroke:#000;stroke-width:10.13px;"/></svg>