<?xml version="1.0" encoding="UTF-8" standalone="no"?><!DOCTYPE svg PUBLIC "-//W3C//DTD SVG 1.1//EN" "http://www.w3.org/Graphics/SVG/1.1/DTD/svg11.dtd"><svg width="100%" height="100%" viewBox="0 0 800 800" version="1.1" xmlns="http://www.w3.org/2000/svg" xmlns:xlink="http://www.w3.org/1999/xlink" xml:space="preserve" xmlns:serif="http://www.serif.com/" style="fill-rule:evenodd;clip-rule:evenodd;stroke-linejoin:round;stroke-miterlimit:2;"><path d="M119.501,442.066l-86.612,176.706c-4.1,8.364 -6.232,17.556 -6.232,26.871c0,33.491 27.559,61.049 61.049,61.049l173.236,0c33.492,0 61.052,-27.56 61.052,-61.052c0,-9.314 -2.131,-18.505 -6.23,-26.868l-86.614,-176.706c-22.348,-45.572 -87.311,-45.572 -109.649,0Z" style="fill:#e9ebfc;fill-rule:nonzero;stroke:#000;stroke-width:12.41px;"/><path d="M304.892,688c0.527,-0.551 1.049,-1.104 1.555,-1.673c0.268,-0.301 0.525,-0.609 0.786,-0.915c0.534,-0.626 1.066,-1.254 1.574,-1.899c0.193,-0.247 0.376,-0.501 0.567,-0.748c0.551,-0.725 1.096,-1.452 1.616,-2.198c0.101,-0.144 0.193,-0.294 0.292,-0.438c8.124,-11.811 11.828,-26.117 10.456,-40.386c-0.121,-1.217 -0.278,-2.436 -0.471,-3.656l0,-0.042c-0.195,-1.211 -0.43,-2.423 -0.706,-3.635l-0.014,-0.061c-0.275,-1.209 -0.588,-2.418 -0.941,-3.626l-0.014,-0.052c-0.358,-1.214 -0.755,-2.424 -1.193,-3.631c-0.762,-2.132 -1.64,-4.222 -2.628,-6.259l-20.529,-41.84l-25.626,0c-9.513,-0.103 -18.86,2.522 -26.927,7.565c-10.487,6.732 -21.548,19.358 -23.845,42.941l0,9.176c-0.118,3.511 -2.301,19.706 -32.595,19.706l-131.231,0c-13.436,-3.41 -23.603,-14.545 -25.779,-28.235c-1.707,5.691 -2.575,11.602 -2.575,17.544c0,33.49 27.553,61.05 61.043,61.059l173.233,0c1.376,0 2.739,-0.049 4.087,-0.134c0.447,-0.031 0.882,-0.087 1.327,-0.125c0.892,-0.078 1.786,-0.151 2.664,-0.264c0.527,-0.068 1.045,-0.167 1.567,-0.247c0.779,-0.122 1.558,-0.235 2.325,-0.386c0.553,-0.108 1.092,-0.235 1.647,-0.365c0.718,-0.162 1.438,-0.32 2.146,-0.506c0.56,-0.146 1.106,-0.315 1.647,-0.471c0.675,-0.2 1.351,-0.395 2.016,-0.616c0.56,-0.186 1.108,-0.391 1.647,-0.593c0.635,-0.235 1.271,-0.471 1.894,-0.706c0.555,-0.235 1.101,-0.471 1.647,-0.706c0.6,-0.264 1.198,-0.527 1.786,-0.809c0.548,-0.264 1.085,-0.541 1.624,-0.819c0.539,-0.278 1.12,-0.584 1.671,-0.892c0.551,-0.308 1.08,-0.619 1.612,-0.941c0.532,-0.322 1.035,-0.631 1.544,-0.955c0.508,-0.325 1.071,-0.706 1.598,-1.061c0.471,-0.329 0.941,-0.664 1.412,-1.005c0.532,-0.388 1.059,-0.784 1.579,-1.191c0.433,-0.339 0.856,-0.685 1.28,-1.035c0.527,-0.435 1.049,-0.875 1.562,-1.327c0.384,-0.341 0.76,-0.689 1.136,-1.038c0.525,-0.489 1.045,-0.981 1.553,-1.487c0.341,-0.344 0.659,-0.68 0.981,-1.019l-0,0.001Z" style="fill:#acb9d4;fill-rule:nonzero;stroke:#000;stroke-width:12.41px;"/><path d="M710.242,485.148c-0.409,-20.316 -2.645,-40.555 -6.68,-60.471c-10.717,-51.133 -25.805,-101.251 -45.099,-149.802c-12.694,-31.613 -15.963,-66.236 -9.412,-99.666c3.272,-16.266 9.025,-31.932 17.059,-46.449c4.413,-7.77 4.039,-17.41 -0.965,-24.814l-0.348,-0.508c-4.341,-6.336 -11.545,-10.133 -19.226,-10.134l-89.489,0c-7.681,0.001 -14.885,3.798 -19.226,10.134l-0.348,0.508c-5.003,7.404 -5.378,17.044 -0.965,24.814c8.034,14.517 13.787,30.183 17.056,46.449c6.553,33.43 3.283,68.053 -9.412,99.666c-19.294,48.551 -34.382,98.669 -45.099,149.802c-4.035,19.916 -6.271,40.154 -6.68,60.471l-4.014,191.419c-0.004,0.205 -0.006,0.411 -0.006,0.616c0,16.189 13.321,29.511 29.51,29.513l167.854,0c16.189,-0.002 29.51,-13.324 29.51,-29.513c0,-0.206 -0.002,-0.411 -0.006,-0.616l-4.014,-191.419Z" style="fill:#fc7d70;fill-rule:nonzero;stroke:#000;stroke-width:12.41px;"/><path d="M138.461,706.696l71.718,0l0,-96.071c0,-11.241 -9.249,-20.49 -20.489,-20.492l-30.736,0c-11.241,0 -20.492,9.25 -20.492,20.492l0,96.071l-0.001,0Z" style="fill:#667387;fill-rule:nonzero;stroke:#000;stroke-width:12.41px;"/><path d="M146.306,487.024c-0.608,0.103 -1.224,0.146 -1.84,0.129c-0.617,-0.015 -1.232,-0.094 -1.833,-0.235c-0.603,-0.127 -1.189,-0.321 -1.748,-0.579c-0.568,-0.237 -1.109,-0.535 -1.612,-0.889c-2.037,-1.44 -3.424,-3.628 -3.856,-6.085c-0.109,-0.606 -0.16,-1.222 -0.155,-1.838c0.027,-0.616 0.105,-1.228 0.235,-1.831c0.141,-0.599 0.335,-1.184 0.579,-1.748c0.244,-0.57 0.549,-1.112 0.911,-1.616c0.359,-0.507 0.765,-0.98 1.212,-1.412c0.442,-0.424 0.929,-0.797 1.454,-1.113c0.52,-0.334 1.071,-0.614 1.647,-0.838c2.922,-1.122 6.219,-0.719 8.786,1.073c0.519,0.344 0.993,0.751 1.412,1.212c0.428,0.442 0.809,0.928 1.136,1.449c0.337,0.518 0.618,1.07 0.838,1.647c0.456,1.15 0.67,2.381 0.631,3.616c-0.035,1.235 -0.31,2.451 -0.809,3.581c-0.244,0.57 -0.55,1.111 -0.913,1.614c-0.345,0.502 -0.745,0.964 -1.191,1.379c-0.443,0.429 -0.93,0.81 -1.452,1.139c-0.523,0.327 -1.074,0.607 -1.647,0.835c-0.577,0.226 -1.174,0.396 -1.784,0.508l-0.001,0.002Z" style="fill:#acb9d4;fill-rule:nonzero;stroke:#000;stroke-width:12.41px;"/><path d="M164.852,521.454c-0.608,0.102 -1.224,0.146 -1.84,0.129c-1.235,-0.035 -2.451,-0.31 -3.581,-0.809c-0.57,-0.243 -1.111,-0.549 -1.614,-0.911c-4.213,-2.969 -5.244,-8.876 -2.285,-13.096c0.356,-0.509 0.762,-0.981 1.209,-1.412c0.45,-0.421 0.936,-0.802 1.452,-1.139c0.524,-0.325 1.075,-0.604 1.647,-0.835c1.153,-0.44 2.38,-0.655 3.614,-0.631c1.235,0.032 2.452,0.306 3.581,0.807c0.567,0.253 1.109,0.559 1.619,0.913c4.213,2.969 5.244,8.876 2.285,13.096c-0.351,0.514 -0.758,0.988 -1.214,1.412c-0.443,0.429 -0.928,0.81 -1.449,1.139c-0.519,0.334 -1.071,0.614 -1.647,0.835c-0.575,0.224 -1.17,0.392 -1.776,0.501l-0.001,0.001Z" style="fill:#acb9d4;fill-rule:nonzero;stroke:#000;stroke-width:12.41px;"/><path d="M125.767,528.249c-0.606,0.108 -1.22,0.159 -1.835,0.153c-1.235,-0.034 -2.452,-0.309 -3.581,-0.809c-0.571,-0.244 -1.113,-0.55 -1.616,-0.913c-0.501,-0.347 -0.963,-0.746 -1.379,-1.191c-0.427,-0.444 -0.808,-0.93 -1.136,-1.452c-0.328,-0.522 -0.608,-1.074 -0.835,-1.647c-0.225,-0.582 -0.395,-1.184 -0.506,-1.798c-0.417,-2.451 0.148,-4.971 1.572,-7.009c0.359,-0.508 0.765,-0.981 1.214,-1.412c0.449,-0.419 0.933,-0.799 1.447,-1.136c0.519,-0.335 1.071,-0.614 1.647,-0.835c1.155,-0.441 2.383,-0.656 3.619,-0.633c0.617,0.017 1.23,0.095 1.831,0.235c1.208,0.274 2.351,0.781 3.365,1.492c0.502,0.358 0.974,0.755 1.412,1.188c0.417,0.456 0.792,0.95 1.118,1.475c0.329,0.513 0.607,1.057 0.831,1.624c0.224,0.575 0.391,1.17 0.501,1.776c0.423,2.458 -0.14,4.987 -1.567,7.033c-0.344,0.519 -0.751,0.993 -1.212,1.412c-0.439,0.432 -0.925,0.813 -1.449,1.136c-0.519,0.334 -1.071,0.615 -1.647,0.838c-0.58,0.215 -1.18,0.373 -1.791,0.473l-0.003,0Z" style="fill:#acb9d4;fill-rule:nonzero;stroke:#000;stroke-width:12.41px;"/><path d="M237.322,676.515c6.256,-22.5 26.967,-38.137 50.32,-37.991l134.353,0c0,0 0.706,0.014 1.901,0.134c19.254,2.059 34.005,18.531 33.936,37.894l0,12.296c0,9.785 -8.048,17.839 -17.833,17.847l-186.93,0c-9.776,0 -17.821,-8.045 -17.821,-17.821c0,-0.666 0.037,-1.331 0.112,-1.993c0.404,-3.498 1.06,-6.963 1.962,-10.367l0,0.001Z" style="fill:#e9ebfc;fill-rule:nonzero;stroke:#000;stroke-width:12.41px;"/><path d="M446.581,638.525l-193.106,0c-10.205,0 -18.602,-8.397 -18.602,-18.602c0,-1.453 0.17,-2.9 0.507,-4.313c0.054,-0.214 0.111,-0.431 0.167,-0.645c4.111,-14.723 17.679,-24.943 32.965,-24.831l153.073,0c9,-0.102 17.805,2.646 25.148,7.849c6.722,4.88 11.827,11.667 14.649,19.48c0.623,1.717 0.941,3.529 0.941,5.355c0,8.616 -7.09,15.706 -15.706,15.706l-0.035,0l-0.001,0.001Z" style="fill:#ff7b94;fill-rule:nonzero;stroke:#000;stroke-width:12.41px;"/><path d="M186.25,656.318l-47.789,0l0,50.379l71.718,0l0,-55.908c-4.816,3.141 -12.296,5.529 -23.929,5.529Z" style="fill:#373d4c;fill-rule:nonzero;stroke:#000;stroke-width:12.41px;"/><path d="M353.007,638.525l41.092,0c-2.411,-16.693 -7.105,-32.975 -13.948,-48.391l-27.701,0l0.558,48.391l-0.001,0Z" style="fill:#d35363;fill-rule:nonzero;stroke:#000;stroke-width:12.41px;"/><path d="M443.212,686.471l-35.623,0c-6.566,0 -11.969,-5.403 -11.969,-11.969c0,-0.235 0.007,-0.469 0.021,-0.704c0.754,-11.779 0.239,-23.604 -1.536,-35.273l-41.096,0l0.551,47.946l-25.696,0l-75.181,-0.04c-9.682,0 -13.216,-6.859 -14.478,-12.706c-0.308,0.925 -0.626,1.845 -0.88,2.795c-0.893,3.366 -1.544,6.791 -1.948,10.249c-0.081,0.692 -0.122,1.388 -0.122,2.085c0,9.791 8.056,17.847 17.847,17.847l186.901,0c9.791,0 17.847,-8.056 17.847,-17.847l0,-6.699c-4.514,2.467 -9.505,3.939 -14.635,4.315l-0.003,0.001Z" style="fill:#acb9d4;fill-rule:nonzero;stroke:#000;stroke-width:12.41px;"/><path d="M462.118,620.292c-7.835,8.235 -22.318,7.508 -22.318,7.508l-182.353,0c-14.026,0 -19.224,-8.379 -21.132,-15.266c-0.28,0.795 -0.541,1.602 -0.762,2.428c-0.056,0.216 -0.113,0.433 -0.167,0.647c-0.337,1.413 -0.507,2.861 -0.507,4.313c0,10.205 8.397,18.602 18.602,18.602l193.109,0c8.628,0 15.727,-7.099 15.727,-15.727c0,-0.839 -0.067,-1.677 -0.201,-2.506l0.002,0.001Z" style="fill:#d35363;fill-rule:nonzero;stroke:#000;stroke-width:12.41px;"/><path d="M710.242,485.148c-0.409,-20.327 -2.647,-40.576 -6.687,-60.501c-10.745,-51.26 -25.884,-101.501 -45.247,-150.165c-12.34,-30.811 -15.696,-64.499 -9.675,-97.139c3.229,-17.206 9.224,-33.776 17.751,-49.066c4.236,-7.693 3.746,-17.16 -1.264,-24.374l-0.327,-0.471c-4.342,-6.33 -11.543,-10.121 -19.219,-10.118l-16.847,0c10.134,8.519 12.034,23.585 4.332,34.353l-50.56,0c-2.43,0.032 -4.411,2.04 -4.411,4.47c0,1.838 1.134,3.497 2.846,4.165c9.252,3.456 19.812,7.369 28.694,10.572c6.757,2.465 10.684,9.633 9.125,16.654c-3.447,15.927 -5.118,36.852 -2.219,63.682c1.646,14.708 4.501,29.255 8.536,43.494c17.234,62.647 29.833,126.479 37.694,190.976c0.103,0.879 0.154,1.762 0.154,2.647c0,12.521 -10.303,22.824 -22.824,22.824l-68.312,0c-12.262,-0.007 -22.385,10.018 -22.496,22.28c-0.468,34.552 1.949,69.083 7.226,103.233c0.401,2.445 0.603,4.92 0.603,7.398c0,25.058 -20.62,45.678 -45.678,45.678l-0.055,0c-0.018,0 -14.56,-1.104 -23.511,-11.682l-0.471,22.506c-0.004,0.205 -0.006,0.411 -0.006,0.616c0,16.189 13.321,29.511 29.51,29.513l167.847,0c15.267,0.001 28.142,-11.845 29.412,-27.059c0.083,-1.017 0.115,-2.038 0.094,-3.059l-4.016,-191.428l0.001,0.001Z" style="fill:#e5544c;fill-rule:nonzero;stroke:#000;stroke-width:12.41px;"/><path d="M321.207,590.134c0,0 11.936,40.569 5.252,116.562l52.995,0c0,0 12.412,-67.374 -7.64,-116.562l-50.607,0Z" style="fill:#667387;fill-rule:nonzero;stroke:#000;stroke-width:12.41px;"/><path d="M383.042,648.631c-0.252,-6.353 -0.748,-12.915 -1.574,-19.529c-1.511,-13.352 -4.754,-26.45 -9.647,-38.965l-9.525,0l-5.395,1.176c-3.196,0.682 -5.5,3.53 -5.5,6.798c0,0.601 0.078,1.2 0.232,1.781c3.426,12.925 9.647,41.774 5.882,69.856c-1.176,8.706 -6.896,15.856 -16.838,16.471c-4.031,0.249 -8.12,0.205 -12.814,0.266c-0.325,6.431 -0.795,13.176 -1.412,20.235l52.995,0c0,0 1.466,-7.962 2.576,-20.409c0.304,-3.393 0.579,-7.122 0.793,-11.113c0.071,-1.332 0.134,-2.691 0.191,-4.078c0.287,-6.955 0.351,-14.553 0.035,-22.489l0.001,0Z" style="fill:#373d4c;fill-rule:nonzero;stroke:#000;stroke-width:12.41px;"/><path d="M773.412,527.165c-0.054,-7.05 -5.872,-12.819 -12.922,-12.814l-165.294,0c-7.05,-0.005 -12.868,5.764 -12.922,12.814c-0.508,98.546 19.739,144.355 34.555,164.652c6.928,9.393 17.945,14.928 29.616,14.88l62.798,0c11.67,0.048 22.687,-5.488 29.614,-14.88c14.814,-20.287 35.064,-66.106 34.555,-164.652Z" style="fill:#636b77;fill-rule:nonzero;stroke:#000;stroke-width:12.41px;"/><path d="M760.487,514.353l-17.995,0c0.249,0.871 0.496,1.762 0.744,2.687c3.471,13.119 5.027,26.671 4.619,40.235c-0.656,24.024 -4.831,65.948 -24.325,96c-5.334,8.18 -14.469,13.12 -24.235,13.104l-96.365,0c3.619,8.995 8.284,17.534 13.896,25.44c6.928,9.393 17.945,14.928 29.616,14.88l62.798,0c11.67,0.048 22.687,-5.488 29.614,-14.88c14.824,-20.296 35.059,-66.106 34.555,-164.652c-0.054,-7.05 -5.872,-12.819 -12.922,-12.814Z" style="fill:#373d4c;fill-rule:nonzero;stroke:#000;stroke-width:12.41px;"/></svg>