<?xml version="1.0" encoding="iso-8859-1"?>
<!-- Uploaded to: SVG Repo, www.svgrepo.com, Generator: SVG Repo Mixer Tools -->
<svg version="1.1" id="Layer_1" xmlns="http://www.w3.org/2000/svg" xmlns:xlink="http://www.w3.org/1999/xlink" 
	 viewBox="0 0 512.002 512.002" xml:space="preserve">
<circle style="fill:#324A5E;" cx="256.001" cy="256" r="256"/>
<path style="fill:#2B3B4E;" d="M511.635,269.691L391.345,149.402L251.403,265.051l-132.741,123.69l122.842,122.844
	c4.798,0.267,9.628,0.417,14.495,0.417C392.793,512,504.519,404.711,511.635,269.691z"/>
<path style="fill:#CFDBE6;" d="M374.237,398.222H137.765c-13.248,0-23.986-10.738-23.986-23.986V166.209
	c0-13.248,10.738-23.986,23.986-23.986h236.472c13.246,0,23.986,10.738,23.986,23.986v208.027
	C398.223,387.484,387.485,398.222,374.237,398.222z"/>
<path style="fill:#B8C9D9;" d="M374.237,142.222H256.001v256h118.236c13.246,0,23.986-10.738,23.986-23.986V166.209
	C398.223,152.96,387.485,142.222,374.237,142.222z"/>
<g>
	<rect x="284.445" y="284.444" style="fill:#E6F3FF;" width="56.889" height="113.778"/>
	<rect x="170.668" y="284.444" style="fill:#E6F3FF;" width="56.889" height="113.778"/>
	<rect x="113.779" y="205.145" style="fill:#E6F3FF;" width="284.444" height="101.71"/>
</g>
<rect x="170.668" y="205.145" style="fill:#B8C9D9;" width="170.667" height="101.71"/>
<rect x="256.001" y="205.145" style="fill:#A3B5C4;" width="85.333" height="101.71"/>
<rect x="170.668" y="205.145" style="fill:#84DBFF;" width="170.667" height="22.411"/>
<rect x="256.001" y="205.145" style="fill:#31BAFD;" width="85.333" height="22.411"/>
<rect x="170.668" y="312.889" style="fill:#9762B7;" width="56.889" height="28.444"/>
<rect x="284.445" y="312.889" style="fill:#601772;" width="56.889" height="28.444"/>
<rect x="227.556" y="312.889" style="fill:#B8C9D9;" width="56.889" height="56.889"/>
<rect x="256.001" y="312.889" style="fill:#A1B5C4;" width="28.444" height="56.889"/>
<rect x="213.765" y="265.051" style="fill:#5B7282;" width="84.471" height="10.343"/>
<rect x="256.001" y="265.051" style="fill:#324A5E;" width="42.236" height="10.343"/>
</svg>