<?xml version="1.0" encoding="iso-8859-1"?>
<!-- Uploaded to: SVG Repo, www.svgrepo.com, Generator: SVG Repo Mixer Tools -->
<svg height="800px" width="800px" version="1.1" id="Layer_1" xmlns="http://www.w3.org/2000/svg" xmlns:xlink="http://www.w3.org/1999/xlink" 
	 viewBox="0 0 512 512" xml:space="preserve">
<circle style="fill:#324A5E;" cx="256" cy="256" r="256"/>
<path style="fill:#2B3B4E;" d="M508.83,296.315l-97.204-97.204L165.421,301.608l-51.643,17.984l188.269,188.269
	C408.419,488.539,491.873,403.492,508.83,296.315z"/>
<path style="fill:#E6F3FF;" d="M348.032,170.667H170.667c-47.128,0-85.333,38.205-85.333,85.333s38.205,85.333,85.333,85.333
	c25.269,0,47.963-10.992,63.588-28.444h50.19c15.625,17.453,38.319,28.444,63.588,28.444c47.128,0,85.333-38.205,85.333-85.333
	S395.161,170.667,348.032,170.667z"/>
<g>
	<path style="fill:#CFDBE6;" d="M348.032,170.667h-91.457v142.222h27.869c15.625,17.453,38.319,28.444,63.588,28.444
		c47.128,0,85.333-38.205,85.333-85.333S395.161,170.667,348.032,170.667z"/>
	<circle style="fill:#CFDBE6;" cx="170.667" cy="256" r="56.889"/>
</g>
<circle style="fill:#B8C9D9;" cx="348.039" cy="256" r="56.889"/>
<path style="fill:#778DA0;" d="M194.1,246.519h-8.94c-2.767,0-5.011-2.243-5.011-5.011v-8.94c0-2.767-2.243-5.011-5.011-5.011h-8.94
	c-2.767,0-5.011,2.243-5.011,5.011v8.94c0,2.767-2.243,5.011-5.011,5.011h-8.94c-2.767,0-5.011,2.243-5.011,5.011v8.94
	c0,2.767,2.243,5.011,5.011,5.011h8.94c2.767,0,5.011,2.243,5.011,5.011v8.94c0,2.767,2.243,5.011,5.011,5.011h8.94
	c2.767,0,5.011-2.243,5.011-5.011v-8.94c0-2.767,2.243-5.011,5.011-5.011h8.94c2.767,0,5.011-2.243,5.011-5.011v-8.94
	C199.111,248.761,196.868,246.519,194.1,246.519z"/>
<circle style="fill:#4CDBC4;" cx="348.039" cy="234.606" r="12.224"/>
<circle style="fill:#FFFFFF;" cx="348.039" cy="277.394" r="12.224"/>
<circle style="fill:#FD8469;" cx="369.416" cy="256" r="12.224"/>
<circle style="fill:#FF80AA;" cx="326.646" cy="256" r="12.224"/>
<path style="fill:#CFDBE6;" d="M218.936,206.164L218.936,206.164c0-4.501,3.648-8.149,8.149-8.149h57.828
	c4.501,0,8.149,3.648,8.149,8.149l0,0c0,4.501-3.648,8.149-8.149,8.149h-57.828C222.584,214.313,218.936,210.665,218.936,206.164z"
	/>
<path style="fill:#B8C9D9;" d="M284.915,198.015h-28.339v16.3h28.339c4.501,0,8.149-3.648,8.149-8.149
	C293.064,201.662,289.416,198.015,284.915,198.015z"/>
</svg>