<?xml version="1.0" encoding="UTF-8" standalone="no"?><!DOCTYPE svg PUBLIC "-//W3C//DTD SVG 1.1//EN" "http://www.w3.org/Graphics/SVG/1.1/DTD/svg11.dtd"><svg width="100%" height="100%" viewBox="0 0 513 513" version="1.1" xmlns="http://www.w3.org/2000/svg" xmlns:xlink="http://www.w3.org/1999/xlink" xml:space="preserve" xmlns:serif="http://www.serif.com/" style="fill-rule:evenodd;clip-rule:evenodd;stroke-linejoin:round;stroke-miterlimit:2;"><path d="M465.453,496.971l-418.904,0c-23.469,0 -42.491,-19.022 -42.491,-42.491l0,-368.515c0,-23.469 19.022,-42.491 42.491,-42.491l418.904,0c23.465,0 42.491,19.022 42.491,42.491l0,368.515c0,23.469 -19.022,42.491 -42.491,42.491Z" style="fill:#cfdbe6;fill-rule:nonzero;stroke:#000;stroke-width:11.76px;"/><path d="M465.453,43.473l-209.452,0l0,453.498l209.452,0c23.465,0 42.491,-19.022 42.491,-42.491l0,-368.515c0,-23.47 -19.022,-42.492 -42.491,-42.492Z" style="fill:#b8c9d9;fill-rule:nonzero;stroke:#000;stroke-width:11.76px;"/><g><rect x="306.389" y="295.416" width="100.777" height="201.555" style="fill:#e6f3ff;stroke:#000;stroke-width:11.76px;"/><rect x="104.836" y="295.416" width="100.777" height="201.555" style="fill:#e6f3ff;stroke:#000;stroke-width:11.76px;"/><rect x="4.058" y="154.94" width="503.886" height="180.177" style="fill:#e6f3ff;stroke:#000;stroke-width:11.76px;"/></g><rect x="104.836" y="154.94" width="302.332" height="180.177" style="fill:#b8c9d9;stroke:#000;stroke-width:11.76px;"/><rect x="256.001" y="154.94" width="151.165" height="180.177" style="fill:#a3b5c4;stroke:#000;stroke-width:11.76px;"/><rect x="104.836" y="154.94" width="302.332" height="39.701" style="fill:#84dbff;stroke:#000;stroke-width:11.76px;"/><rect x="256.001" y="154.94" width="151.165" height="39.701" style="fill:#31bafd;stroke:#000;stroke-width:11.76px;"/><rect x="104.836" y="345.806" width="100.777" height="50.388" style="fill:#9762b7;stroke:#000;stroke-width:11.76px;"/><rect x="306.389" y="345.806" width="100.777" height="50.388" style="fill:#601772;stroke:#000;stroke-width:11.76px;"/><rect x="205.611" y="345.806" width="100.777" height="100.777" style="fill:#b8c9d9;stroke:#000;stroke-width:11.76px;"/><rect x="256.001" y="345.806" width="50.388" height="100.777" style="fill:#a1b5c4;stroke:#000;stroke-width:11.76px;"/><rect x="181.181" y="261.062" width="149.638" height="18.322" style="fill:#5b7282;stroke:#000;stroke-width:11.76px;"/><rect x="256.001" y="261.062" width="74.82" height="18.322" style="fill:#324a5e;stroke:#000;stroke-width:11.76px;"/><path d="M412.839,316.14l-177.108,0c-47.06,0 -85.209,38.15 -85.209,85.209c0,47.06 38.15,85.209 85.209,85.209c25.232,0 47.894,-10.976 63.496,-28.403l50.117,0c15.602,17.428 38.264,28.403 63.496,28.403c47.06,0 85.209,-38.15 85.209,-85.209c0,-47.06 -38.15,-85.209 -85.21,-85.209Z" style="fill:#e6f3ff;fill-rule:nonzero;stroke:#000;stroke-width:11.76px;"/><path d="M412.839,316.14l-91.325,0l0,142.016l27.829,0c15.602,17.428 38.264,28.403 63.496,28.403c47.06,0 85.209,-38.15 85.209,-85.209c0,-47.06 -38.149,-85.209 -85.209,-85.209l0,-0.001Z" style="fill:#cfdbe6;fill-rule:nonzero;stroke:#000;stroke-width:11.76px;"/><circle cx="235.731" cy="401.349" r="56.807" style="fill:#cfdbe6;stroke:#000;stroke-width:11.76px;"/><circle cx="412.846" cy="401.349" r="56.807" style="fill:#b8c9d9;stroke:#000;stroke-width:11.76px;"/><path d="M259.13,391.882l-8.927,0c-2.763,0 -5.004,-2.24 -5.004,-5.004l0,-8.927c0,-2.763 -2.24,-5.004 -5.004,-5.004l-8.927,0c-2.763,0 -5.004,2.24 -5.004,5.004l0,8.927c0,2.763 -2.24,5.004 -5.004,5.004l-8.927,0c-2.763,0 -5.004,2.24 -5.004,5.004l0,8.927c0,2.763 2.24,5.004 5.004,5.004l8.927,0c2.763,0 5.004,2.24 5.004,5.004l0,8.927c0,2.763 2.24,5.004 5.004,5.004l8.927,0c2.763,0 5.004,-2.24 5.004,-5.004l0,-8.927c0,-2.763 2.24,-5.004 5.004,-5.004l8.927,0c2.763,0 5.004,-2.24 5.004,-5.004l0,-8.927c0,-2.765 -2.24,-5.004 -5.004,-5.004Z" style="fill:#778da0;fill-rule:nonzero;stroke:#000;stroke-width:11.76px;"/><circle cx="412.846" cy="379.986" r="12.206" style="fill:#4cdbc4;stroke:#000;stroke-width:11.76px;"/><circle cx="412.846" cy="422.712" r="12.206" style="fill:#fff;stroke:#000;stroke-width:11.76px;"/><circle cx="434.192" cy="401.349" r="12.206" style="fill:#fd8469;stroke:#000;stroke-width:11.76px;"/><circle cx="391.484" cy="401.349" r="12.206" style="fill:#ff80aa;stroke:#000;stroke-width:11.76px;"/><path d="M283.93,351.585c0,-4.494 3.643,-8.137 8.137,-8.137l57.744,0c4.494,0 8.137,3.643 8.137,8.137c0,4.494 -3.643,8.137 -8.137,8.137l-57.744,0c-4.494,0 -8.137,-3.643 -8.137,-8.137Z" style="fill:#cfdbe6;fill-rule:nonzero;stroke:#000;stroke-width:11.76px;"/><path d="M349.813,343.448l-28.298,0l0,16.276l28.298,0c4.494,0 8.137,-3.643 8.137,-8.137c0,-4.497 -3.643,-8.139 -8.137,-8.139Z" style="fill:#b8c9d9;fill-rule:nonzero;stroke:#000;stroke-width:11.76px;"/></svg>