<?xml version="1.0" encoding="UTF-8" standalone="no"?><!DOCTYPE svg PUBLIC "-//W3C//DTD SVG 1.1//EN" "http://www.w3.org/Graphics/SVG/1.1/DTD/svg11.dtd"><svg width="100%" height="100%" viewBox="0 0 4167 1726" version="1.1" xmlns="http://www.w3.org/2000/svg" xmlns:xlink="http://www.w3.org/1999/xlink" xml:space="preserve" xmlns:serif="http://www.serif.com/" style="fill-rule:evenodd;clip-rule:evenodd;stroke-linejoin:round;stroke-miterlimit:2;"><g id="Layer1"><path d="M4166.667,238.286l0,1283.124c0,0 -159.35,203.192 -327.403,204.325c-295.61,1.994 -411.474,-240.131 -605.659,-272.761c-222.03,-37.309 -243.386,273.006 -611.186,272.761c-157.407,-0.105 -311.606,-56.429 -441.457,-187.063c-213.124,-214.41 -492.795,-105.604 -643.168,1.104c-159.81,113.405 -198.084,184.378 -408.892,181.765c-220.864,-2.738 -252.56,-132.143 -466.83,-236.72c-332.554,-162.308 -662.072,137.704 -662.072,137.704l0,-1195.955c0,-0 285.817,-305.579 575.314,-314.995c345.457,-11.235 655.519,317.766 1101.491,297.757c637.753,-28.613 907.541,-420.582 1816.387,-409.079c381.095,4.823 673.475,238.032 673.475,238.032Z" style="fill:#1a1a1a;"/></g><g id="Layer11" serif:id="Layer1"></g></svg>