<?xml version="1.0" encoding="iso-8859-1"?>
<!-- Uploaded to: SVG Repo, www.svgrepo.com, Generator: SVG Repo Mixer Tools -->
<svg height="800px" width="800px" version="1.1" id="Layer_1" xmlns="http://www.w3.org/2000/svg" xmlns:xlink="http://www.w3.org/1999/xlink" 
	 viewBox="0 0 512 512" xml:space="preserve">
<path style="fill:#3E3D42;" d="M380.877,21.689c18.891-26.705,39.982-10.603,66.686,8.289
	c26.705,18.892,48.909,33.418,30.018,60.122S345.107,231.446,318.404,212.555C291.699,193.664,361.986,48.393,380.877,21.689z"/>
<g>
	<path style="fill:#2D2D30;" d="M445.78,28.715c-25.862-18.327-46.435-33.134-64.904-7.027
		c-18.891,26.705-89.177,171.974-62.473,190.866c9.882,6.99,31.663-4.312,56.136-22.669c9.989-50.306,52.295-135.395,66.313-155.21
		C442.478,32.378,444.121,30.405,445.78,28.715z"/>
	<path style="fill:#2D2D30;" d="M318.404,212.555c19.547,13.828,85.642-43.892,127.076-86.297c-2.923-1.115-5.937-2.043-9.037-2.745
		c-12.869-30.318-42.62-51.653-77.025-52.555c-1.092-1.386-2.219-2.739-3.362-4.076
		C330.133,120.085,299.207,198.974,318.404,212.555z"/>
</g>
<path style="fill:#91DC5A;" d="M457.662,197.075c0.545-2.524,0.839-5.142,0.839-7.829c0-20.411-16.547-36.958-36.958-36.958
	c-3.056,0-6.022,0.378-8.862,1.077c-1.887-29.033-26.02-52.002-55.53-52.002c-4.441,0-8.754,0.536-12.895,1.518
	c-17.319-30.869-50.341-51.743-88.256-51.743s-70.937,20.873-88.256,51.743c-4.14-0.982-8.453-1.518-12.895-1.518
	c-29.511,0-53.643,22.969-55.53,52.002c-2.84-0.699-5.806-1.077-8.862-1.077c-20.411,0-36.958,16.547-36.958,36.958
	c0,2.687,0.294,5.305,0.839,7.829H457.662z"/>
<path style="fill:#6DC82A;" d="M256,51.138c-37.914,0-70.937,20.873-88.256,51.743c-4.14-0.982-8.454-1.518-12.895-1.518
	c-29.511,0-53.643,22.969-55.53,52.002c-2.84-0.699-5.806-1.077-8.862-1.077c-20.411,0-36.958,16.547-36.958,36.958
	c0,2.687,0.294,5.305,0.839,7.829h149.636c5.978-68.463,34.34-119.322,52.869-145.923C256.562,51.15,256.283,51.138,256,51.138z"/>
<g>
	<path style="fill:#FF0C38;" d="M237.424,102.831c-2,0-3.957-0.812-5.377-2.222c-1.42-1.42-2.232-3.378-2.232-5.387
		c0-1.999,0.812-3.967,2.232-5.377c1.419-1.42,3.377-2.232,5.377-2.232c2.008,0,3.967,0.812,5.387,2.232
		c1.411,1.42,2.222,3.378,2.222,5.377c0,2.009-0.812,3.967-2.222,5.387C241.391,102.02,239.432,102.831,237.424,102.831z"/>
	<path style="fill:#FF0C38;" d="M161.654,163.703c-2,0-3.957-0.812-5.377-2.222c-1.42-1.42-2.232-3.378-2.232-5.387
		c0-1.999,0.812-3.967,2.232-5.377c1.419-1.42,3.377-2.232,5.377-2.232c2.008,0,3.967,0.812,5.387,2.232
		c1.411,1.42,2.222,3.378,2.222,5.377c0,2.009-0.812,3.967-2.222,5.387C165.62,162.891,163.662,163.703,161.654,163.703z"/>
	<path style="fill:#FF0C38;" d="M312.424,148.485c-2,0-3.957-0.812-5.377-2.222c-1.42-1.42-2.232-3.378-2.232-5.387
		c0-1.999,0.812-3.967,2.232-5.377c1.419-1.42,3.377-2.232,5.377-2.232c2.008,0,3.967,0.812,5.387,2.232
		c1.411,1.42,2.222,3.378,2.222,5.377c0,2.009-0.812,3.967-2.222,5.387C316.391,147.673,314.432,148.485,312.424,148.485z"/>
	<path style="fill:#FF0C38;" d="M352.509,171.312c-2,0-3.957-0.812-5.377-2.222c-1.42-1.42-2.232-3.378-2.232-5.387
		c0-1.999,0.812-3.967,2.232-5.377c1.419-1.42,3.377-2.232,5.377-2.232c2.008,0,3.967,0.812,5.387,2.232
		c1.411,1.42,2.222,3.378,2.222,5.377c0,2.009-0.812,3.967-2.222,5.387C356.476,170.5,354.517,171.312,352.509,171.312z"/>
</g>
<g>
	<path style="fill:#FFFFFF;" d="M255.997,156.094c-2,0-3.957-0.812-5.377-2.222c-1.42-1.42-2.232-3.378-2.232-5.387
		c0-1.999,0.812-3.967,2.232-5.377c1.419-1.42,3.377-2.232,5.377-2.232c2.008,0,3.967,0.812,5.387,2.232
		c1.411,1.42,2.222,3.378,2.222,5.377c0,2.009-0.812,3.967-2.222,5.387C259.964,155.282,258.005,156.094,255.997,156.094z"/>
	<path style="fill:#FFFFFF;" d="M205.974,139.325c-2,0-3.957-0.812-5.377-2.222c-1.42-1.42-2.232-3.378-2.232-5.387
		c0-1.999,0.812-3.967,2.232-5.377c1.419-1.42,3.377-2.232,5.377-2.232c2.008,0,3.967,0.812,5.387,2.232
		c1.411,1.42,2.222,3.378,2.222,5.377c0,2.009-0.812,3.967-2.222,5.387C209.941,138.513,207.982,139.325,205.974,139.325z"/>
	<path style="fill:#FFFFFF;" d="M290.888,110.44c-2,0-3.957-0.812-5.377-2.222c-1.42-1.42-2.232-3.378-2.232-5.387
		c0-1.999,0.812-3.967,2.232-5.377c1.419-1.42,3.377-2.232,5.377-2.232c2.008,0,3.967,0.812,5.387,2.232
		c1.411,1.42,2.222,3.378,2.222,5.377c0,2.009-0.812,3.967-2.222,5.387C294.856,109.628,292.896,110.44,290.888,110.44z"/>
</g>
<path style="fill:#1D1D1F;" d="M224.12,402.995c-8.718,24.484-55.34,92.616-79.823,83.898s-17.558-90.982-8.841-115.466
	c8.718-24.484,30.129-21.806,54.612-13.088S232.838,378.511,224.12,402.995z"/>
<path style="fill:#2D2D30;" d="M287.88,402.995c8.718,24.484,55.34,92.616,79.823,83.898s17.557-90.982,8.841-115.466
	c-8.717-24.484-30.129-21.806-54.612-13.088C297.448,367.054,279.163,378.511,287.88,402.995z"/>
<path style="fill:#57565C;" d="M469.786,190.442H42.214c-11.514,0-20.849,9.334-20.849,20.849v28.212
	c0,129.05,105.585,234.634,234.634,234.634H256c129.049,0,234.634-105.585,234.634-234.634v-28.212
	C490.634,199.776,481.3,190.442,469.786,190.442z"/>
<g>
	<path style="fill:#3E3D42;" d="M113.794,239.502V211.29c0-11.514,9.334-20.849,20.849-20.849H42.214
		c-11.514,0-20.849,9.334-20.849,20.849v28.212c0,129.049,105.585,234.634,234.634,234.634l0,0c15.808,0,31.261-1.594,46.214-4.612
		C195.1,447.907,113.794,352.743,113.794,239.502z"/>
	<path style="fill:#3E3D42;" d="M164.893,420.052c-8.718,24.484-55.34,92.616-79.823,83.898
		c-24.484-8.718-17.558-90.982-8.841-115.466c8.718-24.484,30.129-21.806,54.612-13.089S173.61,395.568,164.893,420.052z"/>
</g>
<path style="fill:#2D2D30;" d="M104.87,418.561c0,0-10.399-10.018-14.566,6.345c-5.518,21.673-11.036,54.001-4.513,79.26
	c17.623,5.204,46.084-27.612,64.04-55.616C133.75,440.318,118.558,430.133,104.87,418.561z"/>
<path style="fill:#57565C;" d="M347.107,420.052c8.718,24.484,55.34,92.616,79.823,83.898c24.484-8.718,17.557-90.982,8.841-115.466
	c-8.718-24.484-30.129-21.806-54.612-13.089C356.675,384.112,338.39,395.568,347.107,420.052z"/>
<g>
	<path style="fill:#3E3D42;" d="M407.13,418.561c0,0,10.399-10.018,14.566,6.345c5.518,21.673,11.036,54.001,4.513,79.26
		c-17.623,5.204-46.084-27.612-64.04-55.616C378.251,440.318,393.443,430.133,407.13,418.561z"/>
	<path style="fill:#3E3D42;" d="M411.855,371.25c-3.283-2.624-3.866-7.386-1.264-10.686c1.994-2.528,3.947-5.134,5.805-7.741
		c2.44-3.421,7.191-4.215,10.612-1.779c3.422,2.439,4.219,7.191,1.779,10.613c-2.001,2.807-4.102,5.608-6.247,8.329
		C421.04,371.89,415.958,374.529,411.855,371.25z"/>
	<path style="fill:#3E3D42;" d="M337.688,426.759c-1.741-3.825-0.259-8.332,3.521-10.168c19.759-9.592,37.792-22.472,53.601-38.28
		c2.972-2.971,7.79-2.971,10.76,0c2.972,2.973,2.972,7.79,0,10.761c-17.01,17.01-36.427,30.874-57.714,41.209
		C346.785,430.8,340.544,433.034,337.688,426.759z"/>
</g>
<path d="M498.244,211.29c0-15.692-12.766-28.458-28.458-28.458h-4.144c-2.441-16.854-14.346-30.677-30.138-35.9
	c23.229-22.523,41.702-43.128,48.289-52.438c10.197-14.413,11.125-28.138,2.76-40.794c-6.821-10.319-62.339-49.593-74.339-52.589
	c-14.718-3.671-27.351,1.771-37.548,16.185c-6.856,9.69-20.751,35.209-34.698,65.902c-20.467-24.835-51.201-39.668-83.967-39.668
	c-9.615,0-19.151,1.257-28.348,3.737c-4.058,1.094-6.461,5.269-5.367,9.327c1.094,4.057,5.266,6.464,9.328,5.366
	c7.905-2.131,16.11-3.211,24.387-3.211c33.783,0,65.058,18.338,81.62,47.857c1.662,2.961,5.063,4.368,8.392,3.681
	c36.129-7.453,57.439,18.405,59.075,43.574c0.146,2.247,1.28,4.314,3.096,5.645c1.816,1.329,4.138,1.834,6.316,1.249
	c17.353-4.66,32.743,8.972,35.678,22.079H61.823c5.221-26.738,33.371-22.646,35.678-22.079c2.188,0.541,4.5,0.081,6.316-1.249
	c1.817-1.332,2.92-3.401,3.096-5.645c4.008-51.028,55.406-44.446,59.075-43.574c3.304,0.781,6.728-0.718,8.391-3.681
	c3.386-6.033,7.455-11.708,12.094-16.864c2.811-3.125,2.557-7.936-0.568-10.746c-3.124-2.811-7.935-2.556-10.746,0.567
	c-4.157,4.621-7.92,9.6-11.229,14.853c-3.016-0.438-58.082-6.8-71.144,50.327c-0.776-0.041-39.288-1.61-46.429,38.092h-4.144
	c-15.692,0-28.458,12.766-28.458,28.458v28.212c0,54.77,18.902,108.275,53.295,151.156c-4.361,15.127-7.165,40.099-6.802,61.879
	c0.563,33.811,8.143,53.28,22.266,58.58c12.934,4.854,35.975-11.261,48.58-25.219c5.189,7.499,15.289,9.372,17.766,9.372
	c10.932,0,23.885-7.866,38.637-23.452c22.085,6.552,45.11,9.926,68.501,9.926c23.431,0,46.446-3.36,68.508-9.903
	c34.719,38.043,53.44,17.998,56.42,14.018c28.033,30.366,46.271,26.072,48.553,25.259c14.212-5.059,21.703-24.77,22.266-58.58
	c0.362-21.78-2.441-46.753-6.802-61.879c34.394-42.881,53.296-96.386,53.296-151.156V211.29H498.244z M351.794,93.994
	c13.78-30.811,28.435-58.213,35.295-67.911c8.222-11.622,15.163-11.776,21.438-10.208c9.223,2.303,60.089,38.284,65.331,46.216
	c3.567,5.395,5.734,11.991-2.488,23.614c-6.848,9.681-28.105,32.945-52.753,56.334C411.844,114.235,386.875,87.613,351.794,93.994z
	 M141.351,473.627c4.365-5.606,8.141-10.936,11.074-15.273c6.226,2.97,12.566,5.656,19,8.072
	C151.908,485.941,142.642,476.194,141.351,473.627z M340.59,466.439c6.431-2.416,12.766-5.112,18.989-8.083
	c2.851,4.208,6.635,9.551,11.073,15.235C368.997,476.879,358.975,484.775,340.59,466.439z M483.026,239.502
	c0,52.616-18.619,104-52.426,144.683c-1.602,1.928-2.466,4.208-1.316,7.415c3.908,10.885,7.652,36.573,7.25,60.683
	c-0.496,29.826-6.858,42.611-12.154,44.497c-8.219,2.926-29.196-13.281-51.188-45.464c7.309-4.076,14.444-8.539,21.372-13.4
	c3.44-2.414,4.272-7.16,1.859-10.599c-2.414-3.44-7.16-4.271-10.599-1.859c-38.292,26.866-83.185,41.067-129.824,41.067
	c-45.052,0-88.669-13.325-126.135-38.533c-3.487-2.347-8.216-1.42-10.561,2.066c-2.346,3.486-1.421,8.215,2.066,10.56
	c5.688,3.827,11.513,7.388,17.453,10.697c-21.978,32.229-42.889,48.426-51.2,45.464c-5.297-1.886-11.658-14.671-12.154-44.497
	c-0.402-24.11,3.722-49.669,7.25-60.683c0.728-2.276,0.286-5.487-1.316-7.415c-33.809-40.685-52.427-92.068-52.427-144.683V211.29
	c0-7.3,5.939-13.24,13.24-13.24h427.572c7.301,0,13.24,5.939,13.24,13.24V239.502z"/>
<path d="M203.017,75.202c2.622-1.806,5.364-3.496,8.15-5.022c3.686-2.019,5.037-6.643,3.018-10.329
	c-2.019-3.687-6.641-5.039-10.329-3.019c-3.239,1.774-6.427,3.741-9.475,5.841c-3.461,2.385-4.316,7.112-1.947,10.583
	C195.635,77.948,201.699,76.112,203.017,75.202z"/>
</svg>