<?xml version="1.0" encoding="UTF-8" standalone="no"?><!DOCTYPE svg PUBLIC "-//W3C//DTD SVG 1.1//EN" "http://www.w3.org/Graphics/SVG/1.1/DTD/svg11.dtd"><svg width="100%" height="100%" viewBox="0 0 3253 2034" version="1.1" xmlns="http://www.w3.org/2000/svg" xmlns:xlink="http://www.w3.org/1999/xlink" xml:space="preserve" xmlns:serif="http://www.serif.com/" style="fill-rule:evenodd;clip-rule:evenodd;stroke-linejoin:round;stroke-miterlimit:2;"><path d="M3061.434,1567.091l-149.74,-65.625c-1.042,-8.073 -2.344,-16.146 -4.427,-23.958c-11.198,-43.49 -52.344,-96.354 -120.312,-111.719l-13.802,-195.052l-145.833,8.333l18.229,207.552c-54.167,29.688 -79.167,82.031 -77.344,142.188l-153.125,124.219l91.146,114.323l123.177,-103.646c30.729,23.698 71.094,43.49 121.094,40.625c60.156,-3.385 101.302,-34.635 126.823,-66.406l132.552,71.094l51.563,-141.927Z" style="fill:#878787;fill-rule:nonzero;stroke:#000;stroke-width:37.87px;"/><path d="M2698.413,997.039c-256.51,17.187 -480.469,238.021 -477.344,515.365c3.385,291.667 227.083,498.698 510.417,498.698c276.823,0 506.771,-203.906 502.083,-513.802c-4.948,-336.198 -265.104,-518.49 -535.156,-500.26Zm39.844,813.542c-157.292,-1.562 -276.823,-126.042 -291.667,-261.719c-19.792,-181.51 94.01,-313.542 255.208,-326.563c167.448,-13.281 306.51,86.198 324.74,265.104c18.229,178.906 -122.656,325 -288.281,323.177Z" style="fill:#4d453c;fill-rule:nonzero;stroke:#000;stroke-width:37.87px;"/><path d="M998.413,1510.581c-27.344,-348.698 -314.844,-463.802 -523.698,-450.781c-238.542,15.104 -459.635,189.583 -455.729,487.24c3.385,261.719 167.448,467.188 503.125,467.188c268.75,0.26 496.094,-250 476.302,-503.646Zm-488.021,331.25c-202.344,3.646 -319.01,-114.323 -320.833,-291.406c-1.563,-165.885 134.115,-309.896 304.948,-304.948c164.063,4.688 284.896,97.656 304.948,270.052c20.052,172.396 -110.156,323.177 -289.063,326.302Z" style="fill:#4d453c;fill-rule:nonzero;stroke:#000;stroke-width:37.87px;"/><path d="M492.945,1306.935c-132.552,-7.031 -248.698,84.375 -250.26,251.823c-1.562,177.344 159.115,238.542 251.823,240.365c92.708,1.823 238.802,-66.146 243.49,-230.208c5.208,-174.219 -89.323,-253.906 -245.052,-261.979Z" style="fill:#858585;fill-rule:nonzero;stroke:#000;stroke-width:37.87px;"/><path d="M140.08,1117.873c9.635,16.927 117.708,8.333 200.521,44.792c53.906,23.698 112.76,86.198 104.427,172.396c-8.333,86.198 -24.74,165.625 -24.74,165.625l152.344,49.74c0,0 59.635,-134.115 92.708,-169.01c33.073,-34.896 107.812,-104.427 217.188,-89.583c84.115,11.458 178.906,87.76 178.906,87.76c0,0 -59.635,-361.198 -66.406,-364.583c-6.51,-3.385 -334.635,13.281 -334.635,13.281c0,0 -149.219,-61.198 -301.563,-23.177c-152.604,38.281 -225.521,101.302 -218.75,112.76Z" style="fill:#ffb900;fill-rule:nonzero;stroke:#000;stroke-width:37.87px;"/><path d="M628.882,960.581l-157.292,477.344c0,0 -60.156,0.26 -82.812,82.812c-18.229,66.406 26.562,109.375 67.969,120.833c48.958,13.802 112.24,-8.073 127.604,-64.583c19.792,-72.917 -19.792,-105.99 -19.792,-112.76c0,-6.771 175.521,-490.365 175.521,-490.365l-111.198,-13.281Z" style="fill:#e1d9dc;fill-rule:nonzero;stroke:#000;stroke-width:37.87px;"/><path d="M2883.83,638.446l187.76,165.885c0,0 41.927,-67.188 41.927,-73.698c0,-6.771 -125.781,-165.885 -125.781,-165.885l-103.906,73.698Z" style="fill:#484d51;fill-rule:nonzero;stroke:#000;stroke-width:37.87px;"/><path d="M1172.632,1339.227l283.073,319.271l550.781,-2.604l337.24,-100.521l-46.094,-180.208l-272.917,-128.646c0,0 136.458,-386.198 108.073,-398.958c-28.385,-12.76 -347.396,-226.563 -347.396,-226.563l-604.948,203.385l-7.812,514.844Z" style="fill:#2f2f2f;fill-rule:nonzero;stroke:#000;stroke-width:37.87px;"/><path d="M2326.278,904.591c0,0 -93.229,84.896 -147.396,160.156c-38.021,53.125 -48.698,114.583 -48.698,114.583l79.688,35.937c0,0 48.177,-110.417 160.938,-176.042c129.427,-75.521 227.865,-65.885 243.229,-32.552c15.365,33.333 -48.177,44.531 -139.063,139.062c-66.927,69.531 -102.865,136.458 -102.865,136.458c0,0 301.302,123.437 301.302,139.062c0,15.365 -54.167,169.792 -54.167,169.792l-342.448,-82.292c0,0 -221.354,-66.927 -244.531,0c-23.177,66.927 79.688,105.469 79.688,105.469l-95.313,61.719l-296.094,-128.646c0,0 -17.448,-81.771 74.74,-262.5c139.323,-273.698 347.396,-411.979 347.396,-411.979l183.594,31.771Z" style="fill:#5e6268;fill-rule:nonzero;stroke:#000;stroke-width:37.87px;"/><path d="M2363.778,918.394c0,0 255.469,-109.635 362.76,-157.552c167.969,-74.74 339.844,-171.094 370.573,-189.323c55.469,-33.073 54.948,-64.062 39.583,-76.823c-15.365,-12.76 -56.51,5.208 -77.344,7.812c-20.833,2.604 -82.292,5.208 -82.292,5.208l-460.677,126.042c0,0 -306.25,192.969 -298.698,192.969c7.552,0 146.094,91.667 146.094,91.667Z" style="fill:#ffb900;fill-rule:nonzero;stroke:#000;stroke-width:37.87px;"/><path d="M789.299,860.321l-323.177,-64.844l159.896,-308.073l171.615,-171.615l101.562,-36.719c0,0 -85.677,113.802 -131.771,185.417c-28.646,44.531 -58.854,117.708 -58.854,117.708c0,0 35.677,-7.812 64.062,-11.198c28.385,-3.385 59.896,-5.729 59.896,-5.729c0,0 -9.375,-60.938 3.906,-92.448c13.281,-31.771 40.885,-52.344 60.937,-54.167c20.052,-1.562 33.333,8.333 33.333,8.333c0,0 -2.865,-48.177 1.562,-61.719c8.333,-25 78.385,-54.427 165.104,-86.198c87.24,-32.031 185.156,-76.562 211.458,-70.313c16.406,3.906 54.948,78.385 34.896,100c-20.052,21.615 -329.688,166.667 -329.688,166.667l51.562,141.667l-276.302,243.229Z" style="fill:#464c4f;fill-rule:nonzero;stroke:#000;stroke-width:37.87px;"/><path d="M500.236,449.383c0,0 195.052,-210.677 298.437,-303.125c76.562,-68.49 135.417,-112.76 157.292,-121.094c11.719,-4.427 125,-8.333 136.458,-4.948c11.719,3.385 23.438,21.615 4.948,40.104c-18.229,18.229 -76.042,84.375 -128.125,139.063c-23.958,25 -70.052,78.906 -70.052,78.906l-84.896,31.51l-213.281,106.51l-100.781,33.073Z" style="fill:#aee3fd;fill-rule:nonzero;stroke:#000;stroke-width:37.87px;"/><path d="M2024.195,1644.435c0.781,10.938 9.115,23.958 44.01,22.135c34.896,-1.823 384.375,3.646 426.562,-5.469c42.188,-9.115 607.031,-254.167 618.229,-276.302c8.073,-16.146 9.375,-70.573 -16.927,-126.562c-29.427,-62.5 -58.854,-93.75 -97.396,-86.458c-38.542,7.292 -825.521,382.552 -884.375,406.25c-58.854,23.958 -91.927,40.625 -90.104,66.406Z" style="fill:#e0e0e0;fill-rule:nonzero;stroke:#000;stroke-width:37.87px;"/><path d="M2437.736,1539.487c6.25,14.844 67.448,12.76 138.542,-19.792c71.094,-32.552 523.438,-253.906 523.438,-253.906c0,0 -7.552,-22.656 -20.833,-43.75c-10.417,-16.406 -27.865,-33.594 -27.865,-33.594c0,0 -514.323,261.979 -543.229,276.302c-37.5,18.75 -81.771,46.875 -70.052,74.74Z" style="fill:#fefefe;fill-rule:nonzero;stroke:#000;stroke-width:37.87px;"/><path d="M1781.226,684.279c0,0 201.302,195.833 230.208,210.417c29.167,14.583 84.635,21.094 130.99,11.979c46.354,-9.115 301.823,-202.604 411.719,-236.979c109.896,-34.375 299.219,-39.583 361.458,-74.219c62.24,-34.635 61.458,-87.76 61.458,-87.76l-540.625,37.5c0,0 -114.583,184.115 -329.688,172.135c-165.365,-9.375 -289.844,-148.177 -289.844,-148.177l-35.677,115.104Z" style="fill:#464c4f;fill-rule:nonzero;stroke:#000;stroke-width:37.87px;"/><path d="M2408.83,1063.966c47.656,25.26 70.313,-29.688 58.333,-54.167c-25.26,-51.563 -119.01,-198.177 -142.969,-207.813c-19.792,-7.812 -127.083,70.052 -137.76,78.125c-10.677,7.812 -6.771,24.74 15.885,41.146c29.167,21.094 169.531,123.177 206.51,142.708Z" style="fill:#c8c8c8;fill-rule:nonzero;stroke:#000;stroke-width:37.87px;"/><path d="M1351.799,813.966l421.094,-15.365l82.031,85.677l-275.521,171.094l-266.927,-65.104l-23.958,-165.885l63.281,-10.417Z" style="fill:#464c4f;fill-rule:nonzero;stroke:#000;stroke-width:37.87px;"/><path d="M1172.111,1077.508l-221.615,241.927c0,0 81.25,144.271 103.646,206.25c23.438,64.583 56.51,181.25 56.51,181.25c0,0 840.104,23.958 879.427,18.75c39.323,-5.208 83.854,-51.302 63.281,-70.052c-20.573,-18.75 -340.625,-150.521 -340.625,-150.521c0,0 -251.562,17.188 -292.708,1.823c-41.146,-15.365 -175.26,-200.26 -167.969,-214.323c17.708,-34.896 344.271,-247.656 344.271,-247.656l-27.344,-29.167l-251.562,-56.51l15.365,-102.604c0,0 113.021,-90.625 126.562,-90.625c13.542,0 148.958,-22.135 224.219,-39.323c75.26,-17.187 167.708,-37.76 189.844,-49.74c22.135,-11.979 38.542,-32.552 32.552,-65.104c-4.688,-24.479 -68.49,-46.094 -68.49,-46.094l-660.417,-37.76l-135.677,14.323c0,0 -18.229,60.938 -115.885,120.833c-97.656,59.896 -263.802,98.698 -263.802,98.698l510.417,315.625Z" style="fill:#ffb900;fill-rule:nonzero;stroke:#000;stroke-width:37.87px;"/><path d="M896.851,278.81c0,0 -221.615,37.24 -372.135,150.26c-150.521,113.021 -208.854,340.625 -212.24,362.76c-3.385,22.135 -32.031,95.833 24.479,131.25c27.344,17.188 81.771,9.115 139.844,22.917c48.177,11.198 157.292,47.917 241.146,123.177c83.854,75.26 232.812,251.562 232.812,251.562l618.229,-304.688c0,0 -178.385,-208.594 -590.885,-235.938c-412.5,-27.344 -455.208,-17.187 -455.208,-17.187c0,0 51.823,-148.958 125,-246.354c97.656,-130.208 248.958,-237.76 248.958,-237.76Z" style="fill:#fec922;fill-rule:nonzero;stroke:#000;stroke-width:37.87px;"/><path d="M1041.122,542.873c0,0 122.396,103.646 343.229,122.396c220.833,18.75 453.385,-99.219 453.385,-99.219c0,0 -372.396,-172.396 -417.448,-169.271c-48.438,3.125 -377.344,135.677 -379.167,146.094Z" style="fill:#fec922;fill-rule:nonzero;stroke:#000;stroke-width:37.87px;"/><path d="M380.445,609.279c0,0 140.365,-0.781 141.406,4.948c1.042,5.729 -51.563,138.802 -51.563,138.802c0,0 -160.677,83.333 -165.625,82.292c-4.948,-1.042 -1.042,-71.615 19.792,-128.906c20.833,-57.292 55.99,-97.135 55.99,-97.135Z" style="fill:#d9e3df;fill-rule:nonzero;stroke:#000;stroke-width:37.87px;"/><path d="M437.476,365.529c6.51,23.438 103.906,96.875 167.188,91.146c58.073,-5.208 48.177,-113.281 47.656,-139.844c-0.781,-53.646 -5.469,-98.958 -8.594,-127.083c-3.385,-30.729 -28.906,-34.115 -46.875,-19.531c-17.969,14.323 -166.406,170.573 -159.375,195.312Z" style="fill:#464c4f;fill-rule:nonzero;stroke:#000;stroke-width:37.87px;"/><path d="M1490.861,1317.612c0,0 -39.844,-111.458 53.906,-175.781c70.833,-48.698 160.677,-42.188 221.615,38.802c60.938,80.99 6.51,176.042 -25.781,202.865c-105.469,88.021 -201.562,4.688 -201.562,4.688c0,0 6.25,45.833 -35.156,77.344c-29.427,22.396 -103.125,28.906 -133.594,-27.083c-32.812,-60.417 0.781,-105.208 35.156,-124.219c44.271,-24.74 85.417,3.385 85.417,3.385Z" style="fill:#464c4f;fill-rule:nonzero;stroke:#000;stroke-width:37.87px;"/></svg>