<?xml version="1.0" encoding="iso-8859-1"?>
<!-- Uploaded to: SVG Repo, www.svgrepo.com, Generator: SVG Repo Mixer Tools -->
<svg height="800px" width="800px" version="1.1" id="Layer_1" xmlns="http://www.w3.org/2000/svg" xmlns:xlink="http://www.w3.org/1999/xlink" 
	 viewBox="0 0 512 512" xml:space="preserve">
<path style="fill:#C6C3CB;" d="M191.124,243.481h57.102h42.833h126.233v167.353c0,10.132-8.018,18.345-17.909,18.345H76.33
	c-13.348,0.001-24.169-11.083-24.169-24.757V245.619L191.124,243.481z"/>
<path style="fill:#57545C;" d="M362.002,509.506H98.064v-39.118c0-22.758,18.45-41.208,41.208-41.208h222.73V509.506z"/>
<polygon style="fill:#494949;" points="338.213,429.181 338.213,485.717 98.064,485.717 98.064,509.506 362.002,509.506 
	362.002,429.181 "/>
<g>
	<path style="fill:#C6C3CB;" d="M194.041,465.172h-46.076c-4.321,0-7.824-3.503-7.824-7.824s3.503-7.824,7.824-7.824h46.076
		c4.321,0,7.824,3.503,7.824,7.824S198.362,465.172,194.041,465.172z"/>
	<path style="fill:#C6C3CB;" d="M194.041,488.818h-46.076c-4.321,0-7.824-3.503-7.824-7.824s3.503-7.824,7.824-7.824h46.076
		c4.321,0,7.824,3.503,7.824,7.824S198.362,488.818,194.041,488.818z"/>
	<polygon style="fill:#C6C3CB;" points="507.99,405.186 452.067,373.889 452.067,290.431 507.99,259.134 	"/>
</g>
<path style="fill:#57545C;" d="M434.681,400.318L434.681,400.318c-9.563,0-17.388-7.824-17.388-17.388V281.389
	c0-9.563,7.824-17.388,17.388-17.388l0,0c9.563,0,17.388,7.824,17.388,17.388V382.93
	C452.067,392.493,444.243,400.318,434.681,400.318z"/>
<path style="opacity:0.34;fill:#2F2D30;enable-background:new    ;" d="M452.067,348.182c0,9.563-7.824,17.388-17.388,17.388l0,0
	c-9.563,0-17.388-7.824-17.388-17.388v34.748c0,9.563,7.824,17.388,17.388,17.388l0,0c9.563,0,17.388-7.824,17.388-17.388v-9.042
	l55.923,31.297v-34.748l-55.923-31.297V348.182z"/>
<g>
	<polygon style="fill:#3C66B1;" points="181.43,291.126 222.556,291.126 222.556,383.001 109.016,383.001 109.016,291.126 
		139.7,291.126 	"/>
	<circle style="fill:#3C66B1;" cx="263.938" cy="332.155" r="15.711"/>
	<circle style="fill:#3C66B1;" cx="316.976" cy="332.155" r="15.711"/>
	<circle style="fill:#3C66B1;" cx="370.024" cy="332.155" r="15.711"/>
</g>
<path style="fill:#77757E;" d="M72.681,39.643c14.504-6.688,30.824-9.859,47.812-9.859c66.547,0,120.493,53.947,120.493,120.493
	S187.04,270.771,120.493,270.771S0,216.825,0,150.278c0-33.669,13.809-64.113,36.073-85.976
	C36.073,64.302,50.948,49.664,72.681,39.643z"/>
<circle style="fill:#57545C;" cx="120.18" cy="150.278" r="78.368"/>
<path style="fill:#3C66B1;" d="M132.91,30.418c-4.082-0.418-8.225-0.633-12.417-0.633c-4.342,0-8.639,0.21-12.875,0.63v106.588H0.73
	C0.252,141.363,0,145.791,0,150.278c0,4.056,0.203,8.064,0.596,12.017h107.023v107.791c4.23,0.45,8.525,0.685,12.875,0.685
	c4.193,0,8.334-0.216,12.417-0.633V162.295h107.481c0.391-3.953,0.596-7.961,0.596-12.017c0-4.487-0.253-8.914-0.731-13.275H132.91
	V30.418z"/>
<circle style="fill:#2F2D30;" cx="120.493" cy="150.278" r="40.071"/>
<path style="fill:#77757E;" d="M343.694,12.353c14.504-6.688,30.824-9.859,47.812-9.859C458.053,2.494,512,56.441,512,122.988
	s-53.947,120.493-120.493,120.493s-120.493-53.947-120.493-120.493c0-33.669,13.809-64.113,36.073-85.976
	C307.086,37.012,321.962,22.374,343.694,12.353z"/>
<circle style="fill:#57545C;" cx="391.192" cy="122.987" r="78.368"/>
<path style="fill:#3C66B1;" d="M403.924,3.128c-4.082-0.418-8.225-0.633-12.417-0.633c-4.342,0-8.639,0.21-12.875,0.63v106.588
	h-106.89c-0.478,4.36-0.73,8.788-0.73,13.275c0,4.056,0.203,8.064,0.596,12.017h107.023v107.791c4.23,0.45,8.525,0.685,12.875,0.685
	c4.193,0,8.334-0.216,12.417-0.633V135.005h107.481c0.391-3.953,0.596-7.961,0.596-12.017c0-4.487-0.254-8.914-0.731-13.275H403.924
	V3.128z"/>
<circle style="fill:#2F2D30;" cx="391.504" cy="122.987" r="40.071"/>
</svg>