<?xml version="1.0" encoding="UTF-8" standalone="no"?><!DOCTYPE svg PUBLIC "-//W3C//DTD SVG 1.1//EN" "http://www.w3.org/Graphics/SVG/1.1/DTD/svg11.dtd"><svg width="100%" height="100%" viewBox="0 0 3390 3357" version="1.1" xmlns="http://www.w3.org/2000/svg" xmlns:xlink="http://www.w3.org/1999/xlink" xml:space="preserve" xmlns:serif="http://www.serif.com/" style="fill-rule:evenodd;clip-rule:evenodd;stroke-linejoin:round;stroke-miterlimit:2;"><path d="M1272.297,1596.926l1472.448,0l0,1089.538c0,65.964 -52.201,119.434 -116.595,119.434l-2103.21,0c-86.901,0.007 -157.35,-72.155 -157.35,-161.178l0,-1033.874l904.707,-13.919l-0,-0.001Z" style="fill:#c6c3cb;fill-rule:nonzero;stroke:#000;stroke-width:56px;"/><path d="M2384.784,3328.859l-1718.346,0l0,-254.674c0,-148.164 120.117,-268.281 268.281,-268.281l1450.065,0l0,522.956l0,-0.001Z" style="fill:#57545c;fill-rule:nonzero;stroke:#000;stroke-width:56px;"/><path d="M2229.908,2805.91l0,368.073l-1563.47,0l-0,154.876l1718.346,0l0,-522.949l-154.876,0Z" style="fill:#494949;fill-rule:nonzero;stroke:#000;stroke-width:56px;"/><g><path d="M1291.288,3040.227l-299.974,0c-28.132,0 -50.938,-22.806 -50.938,-50.938c0,-28.132 22.806,-50.938 50.938,-50.938l299.974,0c28.132,0 50.938,22.806 50.938,50.938c0,28.132 -22.806,50.938 -50.938,50.938Z" style="fill:#c6c3cb;fill-rule:nonzero;stroke:#000;stroke-width:56px;"/><path d="M1291.288,3194.172l-299.974,0c-28.132,0 -50.938,-22.806 -50.938,-50.938c0,-28.132 22.806,-50.938 50.938,-50.938l299.974,0c28.132,0 50.938,22.806 50.938,50.938c0,28.132 -22.806,50.938 -50.938,50.938Z" style="fill:#c6c3cb;fill-rule:nonzero;stroke:#000;stroke-width:56px;"/><path d="M3335.227,2649.693l-364.082,-203.757l0,-543.346l364.082,-203.757l0,950.86Z" style="fill:#c6c3cb;fill-rule:nonzero;stroke:#000;stroke-width:56px;"/></g><path d="M2857.955,2618c-62.259,0 -113.203,-50.938 -113.203,-113.203l0,-661.074c0,-62.259 50.938,-113.203 113.203,-113.203c62.259,0 113.203,50.938 113.203,113.203l0,661.074c-0.013,62.259 -50.951,113.203 -113.203,113.203Z" style="fill:#57545c;fill-rule:nonzero;stroke:#000;stroke-width:56px;"/><g><rect x="737.74" y="1907.115" width="739.193" height="598.145" style="fill:#3c66b1;fill-rule:nonzero;stroke:#000;stroke-width:56px;"/><circle cx="1746.347" cy="2174.23" r="102.285" style="fill:#3c66b1;stroke:#000;stroke-width:56px;"/><circle cx="2091.646" cy="2174.23" r="102.285" style="fill:#3c66b1;stroke:#000;stroke-width:56px;"/><circle cx="2437.011" cy="2174.23" r="102.285" style="fill:#3c66b1;stroke:#000;stroke-width:56px;"/></g><path d="M501.184,269.855c94.427,-43.542 200.677,-64.186 311.276,-64.186c433.249,0 784.46,351.217 784.46,784.46c0,433.242 -351.211,784.466 -784.46,784.466c-433.249,0 -784.46,-351.211 -784.46,-784.46c-0,-219.199 89.902,-417.402 234.85,-559.74c0,0 96.842,-95.299 238.333,-160.54l0.001,0Z" style="fill:#77757e;fill-rule:nonzero;stroke:#000;stroke-width:56px;"/><circle cx="810.422" cy="990.135" r="510.208" style="fill:#57545c;stroke:#000;stroke-width:56px;"/><path d="M893.3,209.797c-26.576,-2.721 -53.548,-4.121 -80.84,-4.121c-28.268,0 -56.243,1.367 -83.822,4.102l0,693.932l-695.885,0c-3.112,28.385 -4.753,57.214 -4.753,86.426c0,26.406 1.322,52.5 3.88,78.236l696.764,0l0,701.764c27.539,2.93 55.501,4.46 83.822,4.46c27.298,0 54.258,-1.406 80.84,-4.121l0,-702.103l699.746,0c2.546,-25.736 3.88,-51.829 3.88,-78.236c0,-29.212 -1.647,-58.034 -4.759,-86.426l-698.874,0l0,-693.913l0.001,0Z" style="fill:#3c66b1;fill-rule:nonzero;stroke:#000;stroke-width:56px;"/><circle cx="812.46" cy="990.135" r="260.879" style="fill:#2f2d30;stroke:#000;stroke-width:56px;"/><path d="M2265.591,92.186c94.427,-43.542 200.677,-64.186 311.276,-64.186c433.249,0 784.466,351.217 784.466,784.466c0,433.249 -351.217,784.46 -784.46,784.46c-433.242,0 -784.46,-351.217 -784.46,-784.46c0,-219.199 89.902,-417.402 234.85,-559.74c-0.007,-0 96.842,-95.299 238.327,-160.54l0.001,0Z" style="fill:#77757e;fill-rule:nonzero;stroke:#000;stroke-width:56px;"/><circle cx="2574.823" cy="812.46" r="510.208" style="fill:#57545c;stroke:#000;stroke-width:56px;"/><path d="M2657.714,32.128c-26.576,-2.721 -53.548,-4.121 -80.84,-4.121c-28.268,0 -56.243,1.367 -83.822,4.102l0,693.932l-695.898,0c-3.112,28.385 -4.753,57.214 -4.753,86.426c0,26.406 1.322,52.5 3.88,78.236l696.764,0l0,701.764c27.539,2.93 55.501,4.46 83.822,4.46c27.298,0 54.258,-1.406 80.84,-4.121l0,-702.103l699.746,0c2.546,-25.736 3.88,-51.829 3.88,-78.236c0,-29.212 -1.654,-58.034 -4.759,-86.426l-698.861,0l0,-693.913l0.001,-0Z" style="fill:#3c66b1;fill-rule:nonzero;stroke:#000;stroke-width:56px;"/><circle cx="2576.855" cy="812.46" r="260.879" style="fill:#2f2d30;stroke:#000;stroke-width:56px;"/></svg>