<?xml version="1.0" encoding="UTF-8" standalone="no"?><!DOCTYPE svg PUBLIC "-//W3C//DTD SVG 1.1//EN" "http://www.w3.org/Graphics/SVG/1.1/DTD/svg11.dtd"><svg width="100%" height="100%" viewBox="0 0 324 566" version="1.1" xmlns="http://www.w3.org/2000/svg" xmlns:xlink="http://www.w3.org/1999/xlink" xml:space="preserve" xmlns:serif="http://www.serif.com/" style="fill-rule:evenodd;clip-rule:evenodd;stroke-linejoin:round;stroke-miterlimit:2;"><path d="M270.137,476.024l-216.462,0l0,-254.154c0,-68.264 27.119,-133.731 75.389,-182.004l32.84,-32.844l32.844,32.844c48.269,48.269 75.389,113.74 75.389,182.004l0,254.154Z" style="fill:#e6f3ff;fill-rule:nonzero;stroke:#000;stroke-width:14.04px;"/><path d="M270.135,221.871c0,-68.264 -27.119,-133.731 -75.389,-182.004l-32.844,-32.844l-0.894,0.894l0,468.103l109.126,0l0,-254.149l0.001,-0Z" style="fill:#cfdbe6;fill-rule:nonzero;stroke:#000;stroke-width:14.04px;"/><path d="M194.746,39.867l-32.844,-32.844l-32.844,32.844c-16.366,16.366 -30.289,34.712 -41.559,54.47l148.807,0c-11.27,-19.758 -25.197,-38.103 -41.561,-54.47l0.001,0Z" style="fill:#ffd15d;fill-rule:nonzero;stroke:#000;stroke-width:14.04px;"/><path d="M194.746,39.867l-32.844,-32.844l-0.894,0.894l0,86.418l75.297,0c-11.269,-19.756 -25.195,-38.101 -41.559,-54.469l0,0.001Z" style="fill:#f9b54c;fill-rule:nonzero;stroke:#000;stroke-width:14.04px;"/><path d="M234.679,353.487l33.158,16.58c29.998,14.998 48.948,45.659 48.948,79.2l0,109.487l-82.106,-41.053l0,-164.214Z" style="fill:#2b3b4e;fill-rule:nonzero;stroke:#000;stroke-width:14.04px;"/><g><path d="M89.128,353.487l-33.158,16.58c-29.998,14.998 -48.948,45.659 -48.948,79.2l-0,109.487l82.106,-41.053l0,-164.214Z" style="fill:#324a5e;fill-rule:nonzero;stroke:#000;stroke-width:14.04px;"/><circle cx="161.904" cy="209.811" r="61.578" style="fill:#324a5e;stroke:#000;stroke-width:14.04px;"/></g><path d="M161.904,148.223c-0.298,0 -0.595,0.019 -0.894,0.022l0,123.114c0.298,0.005 0.595,0.022 0.894,0.022c34.009,0 61.578,-27.569 61.578,-61.578c0,-34.009 -27.569,-61.579 -61.578,-61.579l0,-0.001Z" style="fill:#2b3b4e;fill-rule:nonzero;stroke:#000;stroke-width:14.04px;"/><circle cx="161.904" cy="209.811" r="47.273" style="fill:#b5f1f4;stroke:#000;stroke-width:14.04px;"/><path d="M161.904,162.527c-0.302,0 -0.592,0.041 -0.894,0.045l0,94.456c0.302,0.005 0.592,0.045 0.894,0.045c26.109,0 47.273,-21.164 47.273,-47.273c0,-26.109 -21.164,-47.273 -47.273,-47.273Z" style="fill:#84dbff;fill-rule:nonzero;stroke:#000;stroke-width:14.04px;"/></svg>