<?xml version="1.0" encoding="iso-8859-1"?>
<!-- Uploaded to: SVG Repo, www.svgrepo.com, Generator: SVG Repo Mixer Tools -->
<svg version="1.1" id="Layer_1" xmlns="http://www.w3.org/2000/svg" xmlns:xlink="http://www.w3.org/1999/xlink" 
	 viewBox="0 0 511.999 511.999" xml:space="preserve">
<path style="fill:#434A54;" d="M511.827,142.146v-40.859c0-5.891-4.766-10.656-10.656-10.656s-10.672,4.765-10.672,10.655v42.688
	h0.156c0,5.891,4.781,10.672,10.672,10.672s10.672-4.782,10.672-10.672C511.999,143.349,511.937,142.739,511.827,142.146z"/>
<g>
	<path style="fill:#CCD1D9;" d="M394.718,15.943c-5.891,0-10.672,4.766-10.672,10.655v32.016h21.344V26.599
		C405.39,20.709,400.608,15.943,394.718,15.943z"/>
	<rect x="437.309" y="26.599" style="fill:#CCD1D9;" width="21.344" height="32.02"/>
</g>
<path style="fill:#AC92EB;" d="M458.655,15.943h-21.344c-5.891,0-10.672,4.766-10.672,10.655c0,5.906,4.781,10.672,10.672,10.672
	h21.344c5.891,0,10.672-4.766,10.672-10.672C469.327,20.709,464.546,15.943,458.655,15.943z"/>
<path style="fill:#AAB2BC;" d="M159.907,271.996h-27.594v21.344h27.594c5.898,0,10.672-4.781,10.672-10.656
	C170.579,276.777,165.806,271.996,159.907,271.996z"/>
<path style="fill:#CCD1D9;" d="M138.571,175.661h-21.336v160.054h0.016c-0.008,0.094-0.016,0.188-0.016,0.312
	c0,5.875,4.773,10.656,10.664,10.656c5.898,0,10.672-4.781,10.672-10.656c0-0.125-0.016-0.219-0.016-0.312h0.016V175.661z"/>
<path style="fill:#434A54;" d="M181.25,357.34H74.556c-5.891,0-10.672,4.781-10.672,10.688c0,5.875,4.781,10.656,10.672,10.656
	H181.25c5.891,0,10.664-4.781,10.664-10.656C191.915,362.121,187.141,357.34,181.25,357.34z"/>
<path style="fill:#CCD1D9;" d="M309.453,133.302h191.874v256.069H288.109C288.109,389.371,348.047,236.707,309.453,133.302z"/>
<path style="fill:#AC92EB;" d="M458.655,277.34c0,26.5-21.5,48-48.016,48s-48.016-21.5-48.016-48
	c0-26.523,21.5-48.023,48.016-48.023S458.655,250.816,458.655,277.34z"/>
<g>
	<path style="fill:#E6E9ED;" d="M479.827,368.027H15.041c-11.734,0-17.914,8.969-13.734,19.938l33.632,88.155
		c4.188,10.968,17.211,19.937,28.945,19.937h415.943c11.734,0,21.344-9.594,21.344-21.343v-85.343
		C501.171,377.621,491.561,368.027,479.827,368.027L479.827,368.027z"/>
	<path style="fill:#E6E9ED;" d="M458.827,47.942c-92.844,0-329.451,0-362.764,0c-42.679,0-42.679,42.688-42.679,42.688v106.688
		v53.343c0,5.891,4.773,10.672,10.672,10.672h128.03c5.891,0,10.664-4.781,10.664-10.672v-53.343h298.577V91.958
		C501.327,91.958,501.499,47.942,458.827,47.942z"/>
</g>
<path style="fill:#967ADC;" d="M421.311,250.66c0,5.891-4.781,10.672-10.672,10.672s-10.672-4.781-10.672-10.672
	c0-5.891,4.781-10.672,10.672-10.672S421.311,244.77,421.311,250.66z"/>
<path style="fill:#656D78;" d="M159.907,303.996c-5.891,0-10.664,4.781-10.664,10.688h-42.68c0-5.906-4.773-10.688-10.672-10.688
	c-5.891,0-10.664,4.781-10.664,10.688v10.656c0,5.906,4.773,10.688,10.664,10.688h64.016c5.898,0,10.672-4.781,10.672-10.688
	v-10.656C170.579,308.777,165.806,303.996,159.907,303.996z"/>
<g>
	<path style="fill:#AC92EB;" d="M234.594,368.027H15.041c-11.734,0-17.914,8.969-13.734,19.938l33.632,88.155
		c4.188,10.968,17.211,19.937,28.945,19.937h170.71V368.027z"/>
	<path style="fill:#AC92EB;" d="M447.983,410.714c-5.891,0-10.672,4.75-10.672,10.656v21.344c0,5.875,4.781,10.656,10.672,10.656
		s10.672-4.781,10.672-10.656V421.37C458.655,415.464,453.874,410.714,447.983,410.714z"/>
</g>
<path style="fill:#CCD1D9;" d="M138.571,56.396V218.66c0,5.891,4.773,10.656,10.672,10.656c5.891,0,10.664-4.766,10.664-10.656
	V56.396H138.571z"/>
<path style="fill:#434A54;" d="M159.907,37.271h-21.336c-5.891,0-10.672,4.781-10.672,10.672s4.781,10.672,10.672,10.672h21.336
	c5.898,0,10.672-4.781,10.672-10.672S165.806,37.271,159.907,37.271z"/>
</svg>