<?xml version="1.0" encoding="UTF-8" standalone="no"?><!DOCTYPE svg PUBLIC "-//W3C//DTD SVG 1.1//EN" "http://www.w3.org/Graphics/SVG/1.1/DTD/svg11.dtd"><svg width="100%" height="100%" viewBox="0 0 818 818" version="1.1" xmlns="http://www.w3.org/2000/svg" xmlns:xlink="http://www.w3.org/1999/xlink" xml:space="preserve" xmlns:serif="http://www.serif.com/" style="fill-rule:evenodd;clip-rule:evenodd;stroke-linejoin:round;stroke-miterlimit:2;"><g><g><path d="M160.7,574.491c-7.614,0 -13.794,-6.18 -13.794,-13.794l0,-96.551c0,-7.614 6.18,-13.794 13.794,-13.794c7.614,0 13.794,6.18 13.794,13.794l0,96.551c0,7.614 -6.18,13.794 -13.794,13.794" style="fill:#cdcdcd;fill-rule:nonzero;stroke:#000;stroke-width:17.96px;"/><path d="M188.288,533.112l-55.171,0c-7.614,0 -13.794,-6.18 -13.794,-13.794c0,-7.614 6.18,-13.794 13.794,-13.794l55.171,0c7.614,0 13.794,6.18 13.794,13.794c-0.002,7.614 -6.181,13.794 -13.794,13.794" style="fill:#cdcdcd;fill-rule:nonzero;stroke:#000;stroke-width:17.96px;"/><path d="M602.077,133.115c-7.614,0 -13.794,-6.18 -13.794,-13.794l0,-82.757c0,-7.614 6.18,-13.794 13.794,-13.794c7.614,0 13.794,6.18 13.794,13.794l0,82.759c0,7.614 -6.18,13.792 -13.794,13.792" style="fill:#cdcdcd;fill-rule:nonzero;stroke:#000;stroke-width:17.96px;"/><path d="M215.873,133.115c-7.614,0 -13.794,-6.18 -13.794,-13.794l0,-82.757c0,-7.614 6.18,-13.794 13.794,-13.794c7.614,0 13.794,6.18 13.794,13.794l0,82.759c-0.002,7.614 -6.18,13.792 -13.794,13.792" style="fill:#cdcdcd;fill-rule:nonzero;stroke:#000;stroke-width:17.96px;"/><path d="M271.045,50.358l-55.171,0c-7.614,0 -13.794,-6.18 -13.794,-13.794c0,-7.614 6.18,-13.794 13.794,-13.794l55.171,0c7.614,0 13.794,6.18 13.794,13.794c0,7.614 -6.18,13.794 -13.794,13.794" style="fill:#cdcdcd;fill-rule:nonzero;stroke:#000;stroke-width:17.96px;"/><path d="M602.077,50.358l-55.171,0c-7.614,0 -13.794,-6.18 -13.794,-13.794c0,-7.614 6.18,-13.794 13.794,-13.794l55.171,0c7.614,0 13.794,6.18 13.794,13.794c0,7.614 -6.18,13.794 -13.794,13.794" style="fill:#cdcdcd;fill-rule:nonzero;stroke:#000;stroke-width:17.96px;"/></g><path d="M799.035,592.65l-31.834,-158.593c-21.131,-105.254 -15.434,-171.158 -4.22,-277.915c2.069,-19.628 -13.323,-36.814 -33.159,-36.814l-720.837,0l0,81.448c0,92.468 11.337,143.213 33.765,232.936c4.469,17.889 20.537,30.44 38.979,30.44l162.922,0c22.194,0 40.193,-18 40.193,-40.193l0,-125.322l165.516,0l0,344.825l-441.376,0l-0,165.516l766.642,0c18.414,0 33.351,-14.937 33.351,-33.351l0,-53.02c0,-43.503 -3.323,-86.951 -9.944,-129.957" style="fill:#b9a795;fill-rule:nonzero;stroke:#000;stroke-width:17.96px;"/><g><path d="M160.7,257.253c-7.614,0 -13.794,-6.18 -13.794,-13.794l0,-55.171c0,-7.614 6.18,-13.794 13.794,-13.794c7.614,0 13.794,6.18 13.794,13.794l0,55.171c0,7.614 -6.18,13.794 -13.794,13.794" style="fill:#72665d;fill-rule:nonzero;stroke:#000;stroke-width:17.96px;"/><path d="M160.7,408.975c-7.614,0 -13.794,-6.18 -13.794,-13.794l0,-41.378c0,-7.614 6.18,-13.794 13.794,-13.794c7.614,0 13.794,6.18 13.794,13.794l0,41.379c0,7.612 -6.18,13.792 -13.794,13.792" style="fill:#72665d;fill-rule:nonzero;stroke:#000;stroke-width:17.96px;"/></g><g><path d="M160.7,353.804c-15.172,0 -27.586,-12.414 -27.586,-27.586l0,-55.171c0,-15.172 12.414,-27.586 27.586,-27.586c15.172,0 27.586,12.414 27.586,27.586l0,55.171c0.002,15.172 -12.412,27.586 -27.586,27.586" style="fill:#62564b;fill-rule:nonzero;stroke:#000;stroke-width:17.96px;"/><path d="M698.627,491.734c0,45.711 -37.048,82.759 -82.759,82.759c-45.711,0 -82.759,-37.048 -82.759,-82.759c0,-45.711 37.05,-82.759 82.76,-82.759c45.711,0 82.757,37.048 82.757,82.759" style="fill:#62564b;fill-rule:nonzero;stroke:#000;stroke-width:17.96px;"/><path d="M602.077,643.456c0,7.614 -6.18,13.794 -13.794,13.794c-7.614,0 -13.794,-6.18 -13.794,-13.794c0,-7.614 6.18,-13.794 13.794,-13.794c7.614,0 13.794,6.18 13.794,13.794" style="fill:#62564b;fill-rule:nonzero;stroke:#000;stroke-width:17.96px;"/><path d="M657.25,643.456c0,7.614 -6.18,13.794 -13.794,13.794c-7.614,0 -13.794,-6.18 -13.794,-13.794c0,-7.614 6.18,-13.794 13.794,-13.794c7.614,0 13.794,6.18 13.794,13.794" style="fill:#62564b;fill-rule:nonzero;stroke:#000;stroke-width:17.96px;"/><path d="M574.491,340.01c0,7.614 -6.18,13.794 -13.794,13.794c-7.614,0 -13.794,-6.18 -13.794,-13.794c0,-7.614 6.18,-13.794 13.794,-13.794c7.614,0 13.794,6.18 13.794,13.794" style="fill:#62564b;fill-rule:nonzero;stroke:#000;stroke-width:17.96px;"/><path d="M629.662,340.01c0,7.614 -6.18,13.794 -13.794,13.794c-7.614,0 -13.794,-6.18 -13.794,-13.794c0,-7.614 6.18,-13.794 13.794,-13.794c7.614,0 13.794,6.18 13.794,13.794" style="fill:#62564b;fill-rule:nonzero;stroke:#000;stroke-width:17.96px;"/><path d="M684.835,340.01c0,7.614 -6.18,13.794 -13.794,13.794c-7.614,0 -13.794,-6.18 -13.794,-13.794c0,-7.614 6.18,-13.794 13.794,-13.794c7.614,0 13.794,6.18 13.794,13.794" style="fill:#62564b;fill-rule:nonzero;stroke:#000;stroke-width:17.96px;"/><path d="M436.561,215.873l-137.93,0c-7.614,0 -13.794,-6.18 -13.794,-13.794c0,-7.614 6.18,-13.794 13.794,-13.794l137.93,0c7.614,0 13.794,6.18 13.794,13.794c0,7.614 -6.18,13.794 -13.794,13.794" style="fill:#62564b;fill-rule:nonzero;stroke:#000;stroke-width:17.96px;"/></g><rect x="271.045" y="8.978" width="275.86" height="55.171" style="fill:#ef705d;stroke:#000;stroke-width:17.96px;"/><g><path d="M643.456,533.112c-3.531,0 -7.062,-1.352 -9.751,-4.041l-55.171,-55.171c-5.394,-5.394 -5.394,-14.111 0,-19.503c5.394,-5.394 14.111,-5.394 19.503,0l55.171,55.171c5.394,5.394 5.394,14.111 0,19.503c-2.689,2.689 -6.22,4.041 -9.751,4.041" style="fill:#72665d;fill-rule:nonzero;stroke:#000;stroke-width:17.96px;"/><path d="M588.285,533.112c-3.531,0 -7.062,-1.352 -9.751,-4.041c-5.394,-5.394 -5.394,-14.111 0,-19.503l55.171,-55.171c5.394,-5.394 14.111,-5.394 19.503,0c5.394,5.394 5.394,14.111 0,19.503l-55.171,55.171c-2.691,2.689 -6.222,4.041 -9.751,4.041" style="fill:#72665d;fill-rule:nonzero;stroke:#000;stroke-width:17.96px;"/></g><g><rect x="395.181" y="8.978" width="27.586" height="55.171" style="fill:#bc5949;stroke:#000;stroke-width:17.96px;"/><rect x="464.147" y="8.978" width="27.586" height="55.171" style="fill:#bc5949;stroke:#000;stroke-width:17.96px;"/><rect x="326.216" y="8.978" width="27.586" height="55.171" style="fill:#bc5949;stroke:#000;stroke-width:17.96px;"/></g><g><path d="M284.839,712.421c7.614,0 13.794,-6.18 13.794,-13.794c0,-7.614 -6.18,-13.794 -13.794,-13.794l-275.86,0l-0,27.586l275.86,0l0,0.002Z" style="fill:#62564b;fill-rule:nonzero;stroke:#000;stroke-width:17.96px;"/><path d="M146.908,767.593c7.614,0 13.794,-6.18 13.794,-13.794c0,-7.614 -6.18,-13.794 -13.794,-13.794l-137.93,0l-0,27.586l137.93,0l0,0.002Z" style="fill:#62564b;fill-rule:nonzero;stroke:#000;stroke-width:17.96px;"/></g></g></svg>