<?xml version="1.0" encoding="UTF-8" standalone="no"?><!DOCTYPE svg PUBLIC "-//W3C//DTD SVG 1.1//EN" "http://www.w3.org/Graphics/SVG/1.1/DTD/svg11.dtd"><svg width="100%" height="100%" viewBox="0 0 2175 2134" version="1.1" xmlns="http://www.w3.org/2000/svg" xmlns:xlink="http://www.w3.org/1999/xlink" xml:space="preserve" xmlns:serif="http://www.serif.com/" style="fill-rule:evenodd;clip-rule:evenodd;stroke-linejoin:round;stroke-miterlimit:2;"><path d="M2153,592.275l0,-170.246c0,-24.546 -19.858,-44.4 -44.4,-44.4c-24.542,0 -44.467,19.854 -44.467,44.396l0,177.867l0.65,0c0,24.546 19.921,44.467 44.467,44.467c24.546,0 44.467,-19.925 44.467,-44.467c0,-2.604 -0.258,-5.146 -0.717,-7.617Z" style="fill:#434a54;fill-rule:nonzero;stroke:#000;stroke-width:40.77px;"/><g><path d="M1665.045,66.429c-24.546,0 -44.467,19.858 -44.467,44.396l0,133.4l88.933,0l0,-133.396c0,-24.542 -19.925,-44.4 -44.467,-44.4l0.001,-0Z" style="fill:#ccd1d9;fill-rule:nonzero;stroke:#000;stroke-width:40.77px;"/><rect x="1842.508" y="110.829" width="88.933" height="133.417" style="fill:#ccd1d9;stroke:#000;stroke-width:40.77px;"/></g><path d="M1931.449,66.429l-88.933,0c-24.546,0 -44.467,19.858 -44.467,44.396c0,24.608 19.921,44.467 44.467,44.467l88.933,0c24.546,0 44.467,-19.858 44.467,-44.467c0,-24.537 -19.921,-44.396 -44.467,-44.396Z" style="fill:#ac92eb;fill-rule:nonzero;stroke:#000;stroke-width:40.77px;"/><path d="M686.666,1133.317l-114.975,0l0,88.933l114.975,0c24.575,0 44.467,-19.921 44.467,-44.4c0,-24.612 -19.887,-44.533 -44.467,-44.533Z" style="fill:#aab2bc;fill-rule:nonzero;stroke:#000;stroke-width:40.77px;"/><path d="M597.766,731.921l-88.9,0l0,666.892l0.067,0c-0.033,0.392 -0.067,0.783 -0.067,1.3c0,24.479 19.887,44.4 44.433,44.4c24.575,0 44.467,-19.921 44.467,-44.4c0,-0.521 -0.067,-0.912 -0.067,-1.3l0.067,0l0,-666.892Z" style="fill:#ccd1d9;fill-rule:nonzero;stroke:#000;stroke-width:40.77px;"/><path d="M775.595,1488.917l-444.558,0c-24.546,0 -44.467,19.921 -44.467,44.533c0,24.479 19.921,44.4 44.467,44.4l444.558,0c24.546,0 44.433,-19.921 44.433,-44.4c0.004,-24.612 -19.887,-44.533 -44.433,-44.533Z" style="fill:#434a54;fill-rule:nonzero;stroke:#000;stroke-width:40.77px;"/><path d="M1309.775,555.425l799.475,0l0,1066.954l-888.408,0c0,0 249.742,-636.1 88.933,-1066.954Z" style="fill:#ccd1d9;fill-rule:nonzero;stroke:#000;stroke-width:40.77px;"/><path d="M1931.449,1155.583c0,110.417 -89.583,200 -200.067,200c-110.483,0 -200.067,-89.583 -200.067,-200c0,-110.513 89.583,-200.096 200.067,-200.096c110.483,0 200.067,89.579 200.067,200.096Z" style="fill:#ac92eb;fill-rule:nonzero;stroke:#000;stroke-width:40.77px;"/><g><path d="M2019.666,1533.446l-1936.608,0c-48.892,0 -74.642,37.371 -57.225,83.075l140.133,367.313c17.45,45.7 71.713,83.071 120.604,83.071l1733.096,0c48.892,0 88.933,-39.975 88.933,-88.929l0,-355.596c0,-48.958 -40.042,-88.933 -88.933,-88.933l0,-0.001Z" style="fill:#e6e9ed;fill-rule:nonzero;stroke:#000;stroke-width:40.77px;"/><path d="M1932.166,199.758l-1511.517,0c-177.829,0 -177.829,177.867 -177.829,177.867l0,666.796c0,24.546 19.887,44.467 44.467,44.467l533.458,0c24.546,0 44.433,-19.921 44.433,-44.467l0,-222.263l1244.071,0l0,-439c0,0 0.717,-183.4 -177.083,-183.4Z" style="fill:#e6e9ed;fill-rule:nonzero;stroke:#000;stroke-width:40.77px;"/></g><path d="M1775.85,1044.417c0,24.546 -19.921,44.467 -44.467,44.467c-24.546,0 -44.467,-19.921 -44.467,-44.467c0,-24.546 19.921,-44.467 44.467,-44.467c24.546,0 44.467,19.925 44.467,44.467Z" style="fill:#967adc;fill-rule:nonzero;stroke:#000;stroke-width:40.77px;"/><path d="M686.666,1266.65c-24.546,0 -44.433,19.921 -44.433,44.533l-177.833,0c0,-24.608 -19.887,-44.533 -44.467,-44.533c-24.546,0 -44.433,19.921 -44.433,44.533l0,44.4c0,24.608 19.887,44.533 44.433,44.533l266.733,0c24.575,0 44.467,-19.921 44.467,-44.533l0,-44.4c0,-24.612 -19.888,-44.533 -44.467,-44.533Z" style="fill:#656d78;fill-rule:nonzero;stroke:#000;stroke-width:40.77px;"/><g><path d="M997.862,1533.446l-914.804,0c-48.892,0 -74.642,37.371 -57.225,83.075l140.133,367.313c17.45,45.7 71.713,83.071 120.604,83.071l711.292,0l-0,-533.459Z" style="fill:#ac92eb;fill-rule:nonzero;stroke:#000;stroke-width:40.77px;"/><path d="M1886.983,1711.308c-24.546,0 -44.467,19.792 -44.467,44.4l0,88.933c0,24.479 19.921,44.4 44.467,44.4c24.546,0 44.467,-19.921 44.467,-44.4l0,-88.933c0,-24.608 -19.921,-44.4 -44.467,-44.4Z" style="fill:#ac92eb;fill-rule:nonzero;stroke:#000;stroke-width:40.77px;"/></g><path d="M597.766,234.983l0,676.1c0,24.546 19.887,44.4 44.467,44.4c24.546,0 44.433,-19.858 44.433,-44.4l0,-676.1l-88.9,0Z" style="fill:#ccd1d9;fill-rule:nonzero;stroke:#000;stroke-width:40.77px;"/><path d="M686.666,155.296l-88.9,0c-24.546,0 -44.467,19.921 -44.467,44.467c0,24.546 19.921,44.467 44.467,44.467l88.9,0c24.575,0 44.467,-19.921 44.467,-44.467c0,-24.546 -19.888,-44.467 -44.467,-44.467Z" style="fill:#434a54;fill-rule:nonzero;stroke:#000;stroke-width:40.77px;"/></svg>