<?xml version="1.0" encoding="UTF-8" standalone="no"?><!DOCTYPE svg PUBLIC "-//W3C//DTD SVG 1.1//EN" "http://www.w3.org/Graphics/SVG/1.1/DTD/svg11.dtd"><svg width="100%" height="100%" viewBox="0 0 800 800" version="1.1" xmlns="http://www.w3.org/2000/svg" xmlns:xlink="http://www.w3.org/1999/xlink" xml:space="preserve" xmlns:serif="http://www.serif.com/" style="fill-rule:evenodd;clip-rule:evenodd;stroke-linejoin:round;stroke-miterlimit:2;"><g><path d="M196.622,720c32.336,32.336 84.751,32.336 117.085,0c32.332,-32.332 32.332,-84.753 -0.004,-117.083l-168.082,-168.082c-64.661,64.659 -64.663,169.496 0,234.164l51.001,51.001Z" style="fill:#333e48;fill-rule:nonzero;stroke:#000;stroke-width:20.24px;"/><g><path d="M269.96,589.541c-58.115,0 -105.228,47.113 -105.228,105.226c0,18.218 4.634,35.353 12.781,50.295l-11.096,0c-15.169,0 -27.467,12.3 -27.467,27.467l0,15.07c0,6.849 5.55,12.399 12.399,12.399l118.611,0c58.117,0 105.23,-47.113 105.23,-105.23c0,-58.113 -47.111,-105.226 -105.23,-105.226l0,-0.001Z" style="fill:#2d3740;fill-rule:nonzero;stroke:#000;stroke-width:20.24px;"/><path d="M176.727,745.063l-10.31,0c-15.169,0 -27.467,12.3 -27.467,27.467l0,15.07c0,6.849 5.55,12.399 12.399,12.399l53.395,0c0.023,-0.7 0.053,-1.397 0.053,-2.104c0,-21.986 -11.134,-41.374 -28.07,-52.832Z" style="fill:#dadbdc;fill-rule:nonzero;stroke:#000;stroke-width:20.24px;"/></g><g><path d="M571.868,589.541c58.115,0 105.228,47.113 105.228,105.226c0,18.218 -4.634,35.353 -12.781,50.295l11.096,0c15.169,0 27.467,12.3 27.467,27.467l0,15.07c0,6.849 -5.55,12.399 -12.399,12.399l-118.611,0c-58.117,0 -105.23,-47.113 -105.23,-105.23c0,-58.113 47.113,-105.226 105.23,-105.226l0,-0.001Z" style="fill:#2d3740;fill-rule:nonzero;stroke:#000;stroke-width:20.24px;"/><path d="M665.101,745.063l10.31,0c15.169,0 27.467,12.3 27.467,27.467l0,15.07c0,6.849 -5.55,12.399 -12.399,12.399l-53.395,0c-0.023,-0.7 -0.053,-1.397 -0.053,-2.104c0.002,-21.986 11.136,-41.374 28.07,-52.832Z" style="fill:#dadbdc;fill-rule:nonzero;stroke:#000;stroke-width:20.24px;"/></g><g><path d="M324.382,800l192.738,0c42.826,0 77.875,-35.045 77.875,-77.875l0,-248.563c0,-96.232 -78.012,-174.241 -174.246,-174.241c-96.232,0 -174.244,78.01 -174.244,174.241l0,248.563c0.002,42.831 35.047,77.875 77.877,77.875Z" style="fill:#333e48;fill-rule:nonzero;stroke:#000;stroke-width:20.24px;"/><path d="M420.915,478.956c-51.369,0 -93.012,41.643 -93.012,93.012l0,228.031l186.025,0l0,-228.031c0,-51.367 -41.643,-93.012 -93.012,-93.012l-0.001,-0Z" style="fill:#fff;fill-rule:nonzero;stroke:#000;stroke-width:20.24px;"/></g><g><g><path d="M532.574,13.13c17.268,-17.407 45.38,-17.522 62.789,-0.254c8.704,8.631 13.084,19.979 13.132,31.34l0.002,0.002l0.855,209.95l-112.062,0.456c-33.323,0.134 -60.447,-26.767 -60.582,-60.09l-0.345,-84.407l96.211,-96.997Z" style="fill:#333e48;fill-rule:nonzero;stroke:#000;stroke-width:20.24px;"/><path d="M575.642,233.291l-0.727,-178.43c-0.008,-1.982 -0.515,-5.819 -3.812,-9.089c-3.293,-3.266 -7.128,-3.741 -9.12,-3.732c-1.992,0.008 -5.821,0.515 -9.089,3.808l-87.012,87.723l0.29,71.352c0.065,15.889 13.044,28.761 28.931,28.696l80.54,-0.328l-0.001,0Z" style="fill:#ff9c9f;fill-rule:nonzero;stroke:#000;stroke-width:20.24px;"/></g><g><path d="M307.23,14.049c-17.409,-17.266 -45.521,-17.15 -62.786,0.256c-8.633,8.704 -12.922,20.086 -12.878,31.447l-0.002,0.002l0.855,209.95l112.062,-0.458c33.323,-0.134 60.227,-27.259 60.09,-60.58l-0.343,-84.409l-96.999,-96.209l0.001,0.001Z" style="fill:#333e48;fill-rule:nonzero;stroke:#000;stroke-width:20.24px;"/><path d="M265.957,234.552l-0.727,-178.428c-0.008,-1.984 0.469,-5.825 3.736,-9.123c3.266,-3.291 7.097,-3.8 9.089,-3.806c1.992,-0.008 5.825,0.469 9.12,3.732l87.727,87.015l0.29,71.35c0.065,15.889 -12.809,28.866 -28.696,28.931l-80.54,0.328l0.001,0.001Z" style="fill:#ff9c9f;fill-rule:nonzero;stroke:#000;stroke-width:20.24px;"/></g><path d="M609.352,254.168c-0.425,-104.089 -85.146,-188.126 -189.234,-187.699c-103.726,0.42 -187.529,84.562 -187.691,188.155l-0.008,0l0,43.928l0.013,0c-0.002,0.513 -0.015,1.021 -0.013,1.534c0.425,104.087 85.146,188.124 189.234,187.699c104.089,-0.422 188.124,-85.148 187.699,-189.236l0,-43.928l-0.004,0c0,-0.149 0.004,-0.301 0.004,-0.454l0,0.001Z" style="fill:#333e48;fill-rule:nonzero;stroke:#000;stroke-width:20.24px;"/><path d="M566.261,226.974c-0.198,-48.467 -39.647,-87.595 -88.114,-87.397c-13.113,0.053 -25.533,3.001 -36.684,8.204l-0.067,-16.619c-0.046,-11.604 -9.495,-20.977 -21.101,-20.929c-11.607,0.044 -20.977,9.495 -20.929,21.099l0.067,16.619c-11.195,-5.113 -23.638,-7.958 -36.751,-7.906c-48.465,0.198 -87.595,39.647 -87.397,88.114l0.118,28.994c0.088,21.673 8.045,41.467 21.128,56.724l82.48,96.44c9.77,12.83 25.224,21.089 42.593,21.017c17.369,-0.069 32.756,-8.452 42.421,-21.362l81.694,-97.11l-0.002,0c12.96,-15.364 20.752,-35.221 20.664,-56.894l-0.12,-28.994Z" style="fill:#fff;fill-rule:nonzero;stroke:#000;stroke-width:20.24px;"/><path d="M420.751,329.954c-7.656,6.464 -17.022,10.961 -27.319,12.733l0,25.638c0,15.089 12.231,27.319 27.319,27.319c15.089,0 27.319,-12.231 27.319,-27.319l0,-25.638c-10.299,-1.772 -19.664,-6.269 -27.319,-12.733Z" style="fill:#ff9c9f;fill-rule:nonzero;stroke:#000;stroke-width:20.24px;"/><circle cx="330.706" cy="228.574" r="16.402" style="fill:#0075c9;stroke:#000;stroke-width:20.24px;"/><circle cx="510.845" cy="227.842" r="16.402" style="fill:#0075c9;stroke:#000;stroke-width:20.24px;"/><path d="M439.02,281.136c-9.095,9.511 -24.312,9.841 -33.813,0.744l-10.602,-10.15c-9.505,-9.102 -6.513,-16.593 6.647,-16.646l39.012,-0.16c13.16,-0.053 16.482,7.687 7.385,17.192l-8.629,9.02Z" style="fill:#333e48;fill-rule:nonzero;stroke:#000;stroke-width:20.24px;"/></g><g><path d="M375.191,549.659c0,-25.416 -20.605,-46.019 -46.019,-46.019c-25.416,0 -46.019,20.605 -46.019,46.019l0,195.404l-38.146,0c-15.171,0 -27.464,12.3 -27.464,27.467l0,15.07c0,6.849 5.548,12.399 12.397,12.399l117.789,0c15.169,0 27.464,-12.298 27.464,-27.469l0,-222.87l-0.002,0l0,-0.001Z" style="fill:#2d3740;fill-rule:nonzero;stroke:#000;stroke-width:20.24px;"/><path d="M283.154,694.772l0,50.293l-38.146,0c-15.171,0 -27.464,12.3 -27.464,27.467l0,15.07c0,6.849 5.548,12.399 12.397,12.399l117.789,0c15.169,0 27.464,-12.298 27.464,-27.469l0,-77.76l-92.04,0Z" style="fill:#dadbdc;fill-rule:nonzero;stroke:#000;stroke-width:20.24px;"/></g><g><path d="M466.637,549.659c0,-25.416 20.605,-46.019 46.019,-46.019c25.416,0 46.019,20.605 46.019,46.019l0,195.404l38.146,0c15.171,0 27.464,12.3 27.464,27.467l0,15.07c0,6.849 -5.548,12.399 -12.397,12.399l-117.789,0c-15.169,0 -27.464,-12.298 -27.464,-27.469l0.002,-222.87l0,-0.001Z" style="fill:#2d3740;fill-rule:nonzero;stroke:#000;stroke-width:20.24px;"/><path d="M558.677,694.772l0,50.293l38.146,0c15.171,0 27.464,12.3 27.464,27.467l0,15.07c0,6.849 -5.548,12.399 -12.397,12.399l-117.789,0c-15.169,0 -27.464,-12.298 -27.464,-27.469l0,-77.76l92.04,0Z" style="fill:#dadbdc;fill-rule:nonzero;stroke:#000;stroke-width:20.24px;"/></g></g></svg>