<?xml version="1.0" encoding="UTF-8" standalone="no"?><!DOCTYPE svg PUBLIC "-//W3C//DTD SVG 1.1//EN" "http://www.w3.org/Graphics/SVG/1.1/DTD/svg11.dtd"><svg width="100%" height="100%" viewBox="0 0 3334 3418" version="1.1" xmlns="http://www.w3.org/2000/svg" xmlns:xlink="http://www.w3.org/1999/xlink" xml:space="preserve" xmlns:serif="http://www.serif.com/" style="fill-rule:evenodd;clip-rule:evenodd;stroke-linejoin:round;stroke-miterlimit:2;"><g><path d="M819.258,3042.169c134.733,134.733 353.129,134.733 487.854,0c134.717,-134.717 134.717,-353.137 -0.017,-487.846l-700.342,-700.342c-269.421,269.413 -269.429,706.233 0,975.683l212.504,212.504Z" style="fill:#333e48;fill-rule:nonzero;stroke:#000;stroke-width:84.33px;"/><g><path d="M1124.833,2498.59c-242.146,0 -438.45,196.304 -438.45,438.442c0,75.908 19.308,147.304 53.254,209.562l-46.233,0c-63.204,0 -114.446,51.25 -114.446,114.446l0,62.792c0,28.538 23.125,51.662 51.662,51.662l494.212,0c242.154,0 438.458,-196.304 438.458,-438.458c0,-242.138 -196.296,-438.442 -438.458,-438.442l0,-0.004Z" style="fill:#2d3740;fill-rule:nonzero;stroke:#000;stroke-width:84.33px;"/><path d="M736.363,3146.598l-42.958,0c-63.204,0 -114.446,51.25 -114.446,114.446l0,62.792c0,28.538 23.125,51.662 51.662,51.662l222.479,0c0.096,-2.917 0.221,-5.821 0.221,-8.767c0,-91.608 -46.392,-172.392 -116.958,-220.133Z" style="fill:#dadbdc;fill-rule:nonzero;stroke:#000;stroke-width:84.33px;"/></g><g><path d="M2382.783,2498.59c242.146,0 438.45,196.304 438.45,438.442c0,75.908 -19.308,147.304 -53.254,209.562l46.233,0c63.204,0 114.446,51.25 114.446,114.446l0,62.792c0,28.538 -23.125,51.662 -51.662,51.662l-494.213,0c-242.154,0 -438.458,-196.304 -438.458,-438.458c0,-242.138 196.304,-438.442 438.458,-438.442l0,-0.004Z" style="fill:#2d3740;fill-rule:nonzero;stroke:#000;stroke-width:84.33px;"/><path d="M2771.254,3146.598l42.958,0c63.204,0 114.446,51.25 114.446,114.446l0,62.792c0,28.538 -23.125,51.662 -51.662,51.662l-222.479,0c-0.096,-2.917 -0.221,-5.821 -0.221,-8.767c0.008,-91.608 46.4,-172.392 116.958,-220.133Z" style="fill:#dadbdc;fill-rule:nonzero;stroke:#000;stroke-width:84.33px;"/></g><g><path d="M1351.592,3375.502l803.075,0c178.442,0 324.479,-146.021 324.479,-324.479l0,-1035.679c0,-400.967 -325.05,-726.004 -726.025,-726.004c-400.967,0 -726.017,325.042 -726.017,726.004l0,1035.679c0.008,178.463 146.029,324.479 324.487,324.479Z" style="fill:#333e48;fill-rule:nonzero;stroke:#000;stroke-width:84.33px;"/><path d="M1753.813,2037.819c-214.037,0 -387.55,173.513 -387.55,387.55l0,950.129l775.104,0l0,-950.129c0,-214.029 -173.513,-387.55 -387.55,-387.55l-0.004,0Z" style="fill:#fff;fill-rule:nonzero;stroke:#000;stroke-width:84.33px;"/></g><g><g><path d="M2219.058,96.877c71.95,-72.529 189.083,-73.008 261.621,-1.058c36.267,35.963 54.517,83.246 54.717,130.583l0.008,0.008l3.562,874.792l-466.925,1.9c-138.846,0.558 -251.862,-111.529 -252.425,-250.375l-1.438,-351.696l400.879,-404.154Z" style="fill:#333e48;fill-rule:nonzero;stroke:#000;stroke-width:84.33px;"/><path d="M2398.508,1014.215l-3.029,-743.458c-0.033,-8.258 -2.146,-24.246 -15.883,-37.871c-13.721,-13.608 -29.7,-15.588 -38,-15.55c-8.3,0.033 -24.254,2.146 -37.871,15.867l-362.55,365.513l1.208,297.3c0.271,66.204 54.35,119.837 120.546,119.567l335.583,-1.367l-0.004,0Z" style="fill:#ff9c9f;fill-rule:nonzero;stroke:#000;stroke-width:84.33px;"/></g><g><path d="M1280.125,100.706c-72.538,-71.942 -189.671,-71.458 -261.608,1.067c-35.971,36.267 -53.842,83.692 -53.658,131.029l-0.008,0.008l3.562,874.792l466.925,-1.908c138.846,-0.558 250.946,-113.579 250.375,-252.417l-1.429,-351.704l-404.162,-400.871l0.004,0.004Z" style="fill:#333e48;fill-rule:nonzero;stroke:#000;stroke-width:84.33px;"/><path d="M1108.154,1019.469l-3.029,-743.45c-0.033,-8.267 1.954,-24.271 15.567,-38.012c13.608,-13.712 29.571,-15.833 37.871,-15.858c8.3,-0.033 24.271,1.954 38,15.55l365.529,362.562l1.208,297.292c0.271,66.204 -53.371,120.275 -119.567,120.546l-335.583,1.367l0.004,0.004Z" style="fill:#ff9c9f;fill-rule:nonzero;stroke:#000;stroke-width:84.33px;"/></g><path d="M2538.967,1101.202c-1.771,-433.704 -354.775,-783.858 -788.475,-782.079c-432.192,1.75 -781.371,352.342 -782.046,783.979l-0.033,0l0,183.033l0.054,0c-0.008,2.137 -0.062,4.254 -0.054,6.392c1.771,433.696 354.775,783.85 788.475,782.079c433.704,-1.758 783.85,-354.783 782.079,-788.483l0,-183.033l-0.017,0c0,-0.621 0.017,-1.254 0.017,-1.892l0,0.004Z" style="fill:#333e48;fill-rule:nonzero;stroke:#000;stroke-width:84.33px;"/><path d="M2359.421,987.894c-0.825,-201.946 -165.196,-364.979 -367.142,-364.154c-54.638,0.221 -106.388,12.504 -152.85,34.183l-0.279,-69.246c-0.192,-48.35 -39.562,-87.404 -87.921,-87.204c-48.362,0.183 -87.404,39.563 -87.204,87.912l0.279,69.246c-46.646,-21.304 -98.492,-33.158 -153.129,-32.942c-201.938,0.825 -364.979,165.196 -364.154,367.142l0.492,120.808c0.367,90.304 33.521,172.779 88.033,236.35l343.667,401.833c40.708,53.458 105.1,87.871 177.471,87.571c72.371,-0.288 136.483,-35.217 176.754,-89.008l340.392,-404.625l-0.008,0c54,-64.017 86.467,-146.754 86.1,-237.058l-0.5,-120.808Z" style="fill:#fff;fill-rule:nonzero;stroke:#000;stroke-width:84.33px;"/><path d="M1753.129,1416.977c-31.9,26.933 -70.925,45.671 -113.829,53.054l0,106.825c0,62.871 50.962,113.829 113.829,113.829c62.871,0 113.829,-50.963 113.829,-113.829l0,-106.825c-42.912,-7.383 -81.933,-26.121 -113.829,-53.054Z" style="fill:#ff9c9f;fill-rule:nonzero;stroke:#000;stroke-width:84.33px;"/><circle cx="1377.942" cy="994.56" r="68.342" style="fill:#0075c9;stroke:#000;stroke-width:84.33px;"/><circle cx="2128.521" cy="991.51" r="68.342" style="fill:#0075c9;stroke:#000;stroke-width:84.33px;"/><path d="M1829.25,1213.569c-37.896,39.629 -101.3,41.004 -140.887,3.1l-44.175,-42.292c-39.604,-37.925 -27.138,-69.138 27.696,-69.358l162.55,-0.667c54.833,-0.221 68.675,32.029 30.771,71.633l-35.954,37.583Z" style="fill:#333e48;fill-rule:nonzero;stroke:#000;stroke-width:84.33px;"/></g><g><path d="M1563.296,2332.415c0,-105.9 -85.854,-191.746 -191.746,-191.746c-105.9,0 -191.746,85.854 -191.746,191.746l0,814.183l-158.942,0c-63.212,0 -114.433,51.25 -114.433,114.446l0,62.792c0,28.538 23.117,51.662 51.654,51.662l490.788,0c63.204,0 114.433,-51.242 114.433,-114.454l0,-928.625l-0.008,0l0,-0.004Z" style="fill:#2d3740;fill-rule:nonzero;stroke:#000;stroke-width:84.33px;"/><path d="M1179.808,2937.052l0,209.554l-158.942,0c-63.212,0 -114.433,51.25 -114.433,114.446l0,62.792c0,28.538 23.117,51.662 51.654,51.662l490.788,0c63.204,0 114.433,-51.242 114.433,-114.454l0,-324l-383.5,0Z" style="fill:#dadbdc;fill-rule:nonzero;stroke:#000;stroke-width:84.33px;"/></g><g><path d="M1944.321,2332.415c0,-105.9 85.854,-191.746 191.746,-191.746c105.9,0 191.746,85.854 191.746,191.746l0,814.183l158.942,0c63.213,0 114.433,51.25 114.433,114.446l0,62.792c0,28.538 -23.117,51.662 -51.654,51.662l-490.787,0c-63.204,0 -114.433,-51.242 -114.433,-114.454l0.008,-928.625l0,-0.004Z" style="fill:#2d3740;fill-rule:nonzero;stroke:#000;stroke-width:84.33px;"/><path d="M2327.821,2937.052l0,209.554l158.942,0c63.213,0 114.433,51.25 114.433,114.446l0,62.792c0,28.538 -23.117,51.662 -51.654,51.662l-490.788,0c-63.204,0 -114.433,-51.242 -114.433,-114.454l0,-324l383.5,0Z" style="fill:#dadbdc;fill-rule:nonzero;stroke:#000;stroke-width:84.33px;"/></g></g></svg>