<?xml version="1.0" encoding="UTF-8" standalone="no"?><!DOCTYPE svg PUBLIC "-//W3C//DTD SVG 1.1//EN" "http://www.w3.org/Graphics/SVG/1.1/DTD/svg11.dtd"><svg width="100%" height="100%" viewBox="0 0 818 816" version="1.1" xmlns="http://www.w3.org/2000/svg" xmlns:xlink="http://www.w3.org/1999/xlink" xml:space="preserve" xmlns:serif="http://www.serif.com/" style="fill-rule:evenodd;clip-rule:evenodd;stroke-linejoin:round;stroke-miterlimit:2;"><path d="M352.749,474.059c-15.156,-10.311 -0.756,-18.644 9.533,-33.822l256.289,-416.911c10.312,-15.078 31.168,-19.061 46.311,-8.844c15.156,10.311 19.156,31.133 8.844,46.311l-293.044,391.933c-10.311,15.178 -12.756,31.644 -27.933,21.333Zm36.044,-0.911c-12.311,-13.578 3.644,-18.311 17.222,-30.622l347.111,-344.978c13.567,-12.23 34.772,-11.199 47.089,2.289c12.23,13.567 11.199,34.772 -2.289,47.089l-377,312.044c-13.578,12.333 -19.822,27.756 -32.133,14.178Z" style="fill:#662113;fill-rule:nonzero;stroke:#000;stroke-width:17.63px;"/><path d="M364.371,717.637l400,0c24.444,0 44.444,20 44.444,44.444c0,24.444 -20,44.444 -44.444,44.444l-400,0c-24.444,0 -44.444,-20 -44.444,-44.444c0,-24.444 20,-44.444 44.444,-44.444Z" style="fill:#269;fill-rule:nonzero;stroke:#000;stroke-width:17.63px;"/><circle cx="364.371" cy="450.97" r="355.556" style="fill:#269;stroke:#000;stroke-width:17.63px;"/><path d="M227.415,666.281c-62.533,0 -103.6,-7.533 -106.644,-8.111c-10.286,-2.122 -17.732,-11.261 -17.732,-21.764c0,-12.191 10.031,-22.222 22.222,-22.222c1.258,0 2.514,0.107 3.755,0.319c1.289,0.267 130.178,23.6 279.556,-15.556c149.178,-39.111 236.711,-121.689 237.578,-122.511c4.135,-3.958 9.643,-6.169 15.367,-6.169c12.192,0 22.224,10.032 22.224,22.224c0,6.061 -2.479,11.865 -6.858,16.056c-3.889,3.711 -96.822,91.356 -257.022,133.4c-72.711,19.044 -140.111,24.333 -192.444,24.333l-0.002,0.001Z" style="fill:#55acee;fill-rule:nonzero;stroke:#000;stroke-width:17.63px;"/><path d="M189.593,588.948c-76.267,0 -132.089,-8.444 -136.156,-9.067c-10.783,-1.675 -18.819,-11.054 -18.819,-21.967c0,-12.195 10.035,-22.23 22.23,-22.23c1.142,0 2.283,0.088 3.411,0.263c1.689,0.267 170.956,25.733 320.978,-13.622c149.4,-39.156 274.378,-153.222 275.622,-154.356c4.091,-3.725 9.429,-5.791 14.961,-5.791c12.191,0 22.222,10.031 22.222,22.222c0,6.163 -2.564,12.056 -7.072,16.257c-5.4,5 -134.467,122.733 -294.467,164.689c-70.111,18.378 -142.844,23.6 -202.911,23.6l0.001,0.002Z" style="fill:#55acee;fill-rule:nonzero;stroke:#000;stroke-width:17.63px;"/><path d="M168.726,500.326c-68.978,0 -117.067,-7.733 -120.644,-8.311c-12.006,-1.994 -20.255,-13.5 -18.289,-25.511c1.65,-10.679 10.936,-18.64 21.742,-18.64c1.271,0 2.539,0.11 3.791,0.329c1.489,0.244 152.511,24.289 302.289,-15c149.178,-39.111 259.2,-143.178 260.267,-144.222c4.135,-3.958 9.643,-6.169 15.367,-6.169c12.192,0 22.224,10.032 22.224,22.224c0,6.061 -2.479,11.865 -6.858,16.056c-4.8,4.6 -119.533,113.133 -279.733,155.133c-72.022,18.822 -143.2,24.111 -200.156,24.111Z" style="fill:#55acee;fill-rule:nonzero;stroke:#000;stroke-width:17.63px;"/><path d="M174.215,419.104c-10.795,-0.012 -20.097,-7.888 -21.889,-18.533c-26.267,-156.244 32.267,-230.8 34.756,-233.889c4.216,-5.26 10.603,-8.327 17.344,-8.327c12.193,0 22.227,10.034 22.227,22.227c0,5.053 -1.723,9.957 -4.883,13.9c-0.956,1.244 -48.156,64.578 -25.622,198.711c0.203,1.212 0.304,2.438 0.304,3.667c0,12.2 -10.037,22.241 -22.238,22.244l0.001,0Zm93.978,-5.378c-11.233,-0.018 -20.775,-8.55 -22.044,-19.711c-20.667,-182.311 34,-259.422 36.356,-262.622c4.19,-5.636 10.812,-8.964 17.834,-8.964c12.191,0 22.222,10.031 22.222,22.222c0,4.595 -1.425,9.079 -4.079,12.831c-0.889,1.267 -46.556,69.356 -28.178,231.489c0.097,0.841 0.145,1.687 0.145,2.533c0,12.191 -10.031,22.222 -22.222,22.222l-0.034,0Zm97.511,-24.756c-11.144,-0.014 -20.64,-8.409 -22.022,-19.467c-18.689,-150.467 24.289,-232.133 26.133,-235.533c3.892,-7.117 11.385,-11.559 19.497,-11.559c12.191,0 22.222,10.031 22.222,22.222c0,3.627 -0.888,7.199 -2.586,10.404c-0.778,1.511 -37.867,74.622 -21.178,209c0.111,0.899 0.166,1.805 0.166,2.711c0,12.191 -10.031,22.222 -22.222,22.222l-0.01,0Zm103.267,-48.756c-10.92,-0.007 -20.294,-8.071 -21.933,-18.867c-16.933,-110.867 5.244,-164.089 6.2,-166.289c3.481,-8.176 11.548,-13.508 20.433,-13.508c12.183,0 22.208,10.025 22.208,22.208c0,2.99 -0.604,5.949 -1.775,8.7c-0.467,1.2 -17.778,46.467 -3.178,142.178c0.17,1.11 0.255,2.232 0.255,3.356c0,12.186 -10.024,22.216 -22.21,22.222Zm-168.556,432.978c-2.857,0.004 -5.687,-0.547 -8.333,-1.622c-27.4,-11.111 -52.6,-36.044 -55.378,-38.844c-3.97,-4.137 -6.189,-9.654 -6.189,-15.387c0,-12.191 10.031,-22.222 22.222,-22.222c5.788,0 11.353,2.261 15.5,6.298c5.844,5.867 24.489,22.467 40.556,28.978c8.301,3.433 13.743,11.573 13.743,20.556c0,12.156 -9.965,22.177 -22.121,22.244l0,-0.001Zm126.733,3.467c-4.026,0.001 -7.976,-1.098 -11.422,-3.178c-30.333,-18.222 -68.222,-55.4 -69.822,-56.956c-4.243,-4.178 -6.635,-9.89 -6.635,-15.844c0,-12.198 10.037,-22.235 22.235,-22.235c5.835,0 11.442,2.297 15.6,6.391c0.356,0.356 35.733,35.044 61.511,50.533c6.696,4.009 10.808,11.262 10.808,19.067c0,12.191 -10.031,22.222 -22.222,22.222l-0.053,0Zm96.222,-37.356c-3.678,0.003 -7.3,-0.914 -10.533,-2.667c-25.4,-13.667 -52.556,-42.889 -55.578,-46.178c-3.77,-4.093 -5.864,-9.459 -5.864,-15.024c0,-6.216 2.614,-12.155 7.198,-16.354c8.993,-8.211 23.136,-7.611 31.4,1.333c6.822,7.422 28,28.533 43.956,37.133c7.227,3.846 11.759,11.392 11.759,19.578c0,12.166 -10.011,22.178 -22.178,22.178c-0.053,0 -0.106,0 -0.159,-0.001l-0.001,0.002Zm76.556,-62.044c-3.507,0.002 -6.965,-0.829 -10.089,-2.422c-13.422,-6.867 -28.622,-18.711 -30.311,-20.022c-5.052,-4.22 -7.976,-10.473 -7.976,-17.055c0,-12.191 10.031,-22.222 22.222,-22.222c4.75,0 9.377,1.523 13.199,4.344c3.667,2.867 14.978,11.244 23.089,15.378c7.41,3.796 12.09,11.452 12.09,19.778c0,12.191 -10.031,22.222 -22.222,22.222l-0.001,0l-0.001,-0.001Zm-519.844,-254.378c-11.055,-0.022 -20.496,-8.289 -21.978,-19.244c-7.933,-58.489 7.644,-113.978 20.044,-137.022c3.998,-6.763 11.293,-10.925 19.149,-10.925c12.203,0 22.244,10.042 22.244,22.244c0,3.386 -0.773,6.727 -2.26,9.769c-7.844,14.533 -21.844,60.533 -15.133,109.956c0.135,0.994 0.203,1.997 0.203,3c0,12.191 -10.031,22.222 -22.222,22.222l-0.048,0l0.001,-0Zm480.711,-123.489c-10.621,-0.006 -19.823,-7.632 -21.8,-18.067c-6.2,-32.667 -2.489,-69.956 4.378,-89.933c2.946,-9.166 11.529,-15.423 21.156,-15.423c12.191,0 22.222,10.031 22.222,22.222c0,2.608 -0.459,5.196 -1.356,7.645c-4.156,12.044 -7.733,40.867 -2.733,67.178c0.261,1.37 0.392,2.761 0.392,4.156c0,12.191 -10.031,22.222 -22.222,22.222l-0.037,0Z" style="fill:#55acee;fill-rule:nonzero;stroke:#000;stroke-width:17.63px;"/></svg>