<?xml version="1.0" encoding="UTF-8" standalone="no"?><!DOCTYPE svg PUBLIC "-//W3C//DTD SVG 1.1//EN" "http://www.w3.org/Graphics/SVG/1.1/DTD/svg11.dtd"><svg width="100%" height="100%" viewBox="0 0 800 800" version="1.1" xmlns="http://www.w3.org/2000/svg" xmlns:xlink="http://www.w3.org/1999/xlink" xml:space="preserve" xmlns:serif="http://www.serif.com/" style="fill-rule:evenodd;clip-rule:evenodd;stroke-linejoin:round;stroke-miterlimit:2;"><circle cx="394.562" cy="353.625" r="322.562" style="fill:#880e4f;stroke:#000;stroke-width:14.7px;"/><path d="M333.375,230.687c-0.75,0 -1.562,-0.188 -2.312,-0.25c-13.188,-0.75 -16.688,-15.75 -14.5,-24c13.5,-51.688 6.812,-97.625 -15.313,-156.312c-4.562,-12 13.625,-15.125 21.563,-11.938c7.625,3.062 14.688,14.062 17.75,22.375c18.312,49.562 23.438,101.625 8.312,157.312c-2,7.5 -8,13 -15.5,12.812l0,0.001Z" style="fill:#ec407a;fill-rule:nonzero;stroke:#000;stroke-width:14.7px;"/><path d="M373.75,278.625c-1.375,0 -2.75,-0.25 -4.125,-0.688c-6.498,-1.957 -10.977,-7.983 -10.977,-14.77c0,-1.518 0.224,-3.028 0.665,-4.48c17.375,-57.5 30.063,-151.5 -10.187,-222.125c-4.25,-7.437 6.562,-12.312 15.062,-11.5c19.5,1.75 30.875,30.937 34.625,43.938c17.625,60.688 11.875,141.812 -9.938,198.625c-2.5,6.688 -8.375,11.188 -15.125,11Z" style="fill:#ec407a;fill-rule:nonzero;stroke:#000;stroke-width:14.7px;"/><path d="M415.375,323.938c-10.625,-3.062 -12.625,-17.062 -10.187,-25.25c48.375,-162.125 -0.312,-261.75 -0.688,-262.812c-3,-8 23.25,-18.937 36.188,13.5c1.875,4.688 45.062,113.125 -3.625,262.5c-2.313,6.875 -10.562,15.312 -21.688,12.062Z" style="fill:#ec407a;fill-rule:nonzero;stroke:#000;stroke-width:14.7px;"/><path d="M140.125,565.625c-4.5,-5.312 -10.125,-13.75 -3,-18.5c11.812,-7.937 52.375,-20.812 84.813,-64.812c5.063,-6.875 13.625,-10.062 21.062,-5.813c7.437,4.188 10.75,14.125 5.812,21.063c-39.375,55.5 -87.312,70.5 -89.25,71.625c-2.375,1.375 -14.938,1.75 -19.438,-3.562l0.001,-0.001Z" style="fill:#ec407a;fill-rule:nonzero;stroke:#000;stroke-width:14.7px;"/><path d="M166.188,588.688c-3.25,-8.125 17.5,-11.688 17.5,-11.688c9.188,-3.5 46.875,-10.562 76.938,-57.875c4.562,-7.188 13.688,-10 21.062,-5.75c7.438,4.25 10,13.688 5.75,21.063c-20.187,35.375 -59.625,61.875 -86.625,68.312c-14.438,3.438 -31.438,-6.125 -34.625,-14.062Z" style="fill:#ec407a;fill-rule:nonzero;stroke:#000;stroke-width:14.7px;"/><path d="M216.688,635c-9.562,-5.062 -12.375,-14.313 -6.312,-16.312c35.812,-11.562 74.938,-41.438 93.938,-69.562c4.75,-7.062 14.375,-8.938 21.437,-4.125c7.063,4.75 8.875,14.375 4.125,21.438c-22.312,33.625 -45.062,50.625 -82.187,66.75c-7.063,3.062 -22.063,6.562 -31,1.812l-0.001,-0.001Z" style="fill:#ec407a;fill-rule:nonzero;stroke:#000;stroke-width:14.7px;"/><path d="M262.438,648.812c23.438,-10.75 62.5,-33 85.125,-70.938c4.375,-7.312 13.875,-9.75 21.188,-5.375c7.312,4.375 9.75,13.875 5.375,21.188c-18.25,30.625 -43.625,54.812 -82.312,68.438c-18.812,6.687 -37.125,-9.688 -29.375,-13.312l-0.001,-0.001Z" style="fill:#ec407a;fill-rule:nonzero;stroke:#000;stroke-width:14.7px;"/><path d="M118.5,521c-52.062,-61.375 -61.25,-141.5 -47.875,-220.875c3.062,-18.25 9.75,-29.625 16.375,-29.563c8.562,0.125 16.812,29.5 14.312,45.438c-11.25,71.688 9.5,142 54.375,196.687c2.688,3.312 -1.125,14.5 -10.688,18.688c-9.562,4.125 -20.25,-3 -26.5,-10.375l0.001,0Z" style="fill:#ec407a;fill-rule:nonzero;stroke:#000;stroke-width:14.7px;"/><path d="M158.188,486.438c-23.562,-22.125 -43.063,-91.375 -43.125,-124.312c0,-8.562 0.063,-20.875 8.625,-20.875c0,0 19.125,2.938 22.312,20.812c4.562,25.75 18.812,84.875 42.562,114.813c5.312,6.687 -14.312,24.625 -30.375,9.562l0.001,0Z" style="fill:#ec407a;fill-rule:nonzero;stroke:#000;stroke-width:14.7px;"/><path d="M415.188,688.125c-27.188,1.375 -68.938,-4.312 -82.625,-23.062c-5.062,-6.875 4,-13.375 12.25,-11.188c49.75,13.438 84.188,21.25 147.75,-9.625c12.875,-6.25 27.125,0.312 20.75,9.312c-8.938,12.688 -49.25,32.375 -98.125,34.562l0,0.001Z" style="fill:#d81b60;fill-rule:nonzero;stroke:#000;stroke-width:14.7px;"/><path d="M364.188,632.062c-4.812,-7.062 9.5,-18.875 18,-17.5c13.437,2.125 22.75,4.5 32.125,4.875c9.625,0.375 21.438,-3.125 25.062,-3.125c8.563,0 29.063,8.438 23.813,15.188c-16.25,20.875 -83.812,22.75 -99,0.563l0,-0.001Z" style="fill:#d81b60;fill-rule:nonzero;stroke:#000;stroke-width:14.7px;"/><path d="M540.5,278.562c-7.812,0.938 -15.188,-4.25 -16.875,-12.062c-1.812,-8.312 3.5,-16.562 11.812,-18.375c36.812,-8 84.812,-35.438 112.812,-79.5c6.688,-10.562 27.5,9.25 16.312,26c-33.625,50.562 -77.688,74 -122.562,83.687c-0.5,0.062 -1,0.188 -1.5,0.25l0.001,0Z" style="fill:#ec407a;fill-rule:nonzero;stroke:#000;stroke-width:14.7px;"/><path d="M529.812,334.5c-8.294,0.994 -15.967,-4.915 -17.125,-13.188c-1.188,-8.438 4.625,-16.312 13.125,-17.5c60.562,-8.688 126.75,-54.875 149,-101.125c3.688,-7.688 29.25,15 11,40.312c-32.562,45.062 -96.437,82.938 -155.562,91.375c-0.188,0.125 -0.312,0.125 -0.437,0.125l-0.001,0.001Z" style="fill:#ec407a;fill-rule:nonzero;stroke:#000;stroke-width:14.7px;"/><path d="M535.375,383.625c-4.938,0.563 -9.812,1 -14.5,1.188c-8.5,0.375 -15.75,-6.25 -16.125,-14.812c-0.375,-8.562 6.25,-15.812 14.813,-16.062c61.937,-2.625 152,-44.25 179.938,-96.062c4.062,-7.5 29.938,13.75 7.938,41.625c-16.5,20.938 -42.5,38.063 -72.25,53c-32.25,16.25 -68.5,27.438 -99.812,31.125l-0.002,-0.002Z" style="fill:#ec407a;fill-rule:nonzero;stroke:#000;stroke-width:14.7px;"/><path d="M584.312,425.875c-4.375,0.5 -8.438,0.75 -12.063,0.625c-8.32,-0.176 -15.068,-7.068 -15.068,-15.39c0,-0.141 0.002,-0.281 0.006,-0.422c0.176,-8.32 7.068,-15.068 15.39,-15.068c0.141,0 0.281,0.002 0.422,0.006c28.562,0.625 105.687,-29.375 138.437,-80.812c4.625,-7.188 21.688,19.688 3.25,40.688c-39.875,45.437 -92.688,65.937 -130.375,70.375l0.001,-0.002Z" style="fill:#ec407a;fill-rule:nonzero;stroke:#000;stroke-width:14.7px;"/><path d="M465.125,364.438c-1.875,0 -3.75,-0.312 -5.625,-1.062c-7.938,-3.062 -11.562,-11.938 -8.812,-20c31.812,-93.312 42.938,-203.313 2.938,-304.625c-3.125,-7.938 27.375,-9 35.438,14.687c38,112.125 26.562,202.875 -9.562,301.125c-2.25,6.188 -8.188,9.875 -14.375,9.875l-0.002,0Z" style="fill:#ec407a;fill-rule:nonzero;stroke:#000;stroke-width:14.7px;"/><path d="M581.75,186.312c-7.938,-9.938 -38.312,-33.938 -50.062,-38.062c-8.063,-2.875 -10.875,-30.625 -2.313,-30.625c28.125,-0.063 66.688,27.75 78.188,54.375c8.5,19.688 -9.562,34.625 -25.812,14.312l-0.001,0Z" style="fill:#d81b60;fill-rule:nonzero;stroke:#000;stroke-width:14.7px;"/><path d="M621,161.312c-27.688,-37 -49.938,-61.313 -101.188,-79.312c-11.812,-4.188 -23,-18.688 -15.812,-23.313c13.312,-8.625 38.125,1.875 45.062,5.188c27.125,12.938 52.25,26.812 73.375,51.375c11.938,13.875 25.938,42.813 20.25,49.125c-8.625,9.563 -18.625,1 -21.688,-3.062l0.001,-0.001Z" style="fill:#d81b60;fill-rule:nonzero;stroke:#000;stroke-width:14.7px;"/><path d="M628.75,468.438c-4.5,-7.25 20.562,-17.688 22.812,-44.188c0.75,-8.5 26.625,-18.5 27.188,-10c2.125,33.125 -9.562,45.188 -22.562,54.625c-14.188,10.187 -24.563,4.312 -27.438,-0.438l0,0.001Z" style="fill:#d81b60;fill-rule:nonzero;stroke:#000;stroke-width:14.7px;"/><path d="M680.25,491.062c-11.562,-2.625 -6.938,-15.062 -1.562,-21.688c20.5,-25.125 22.375,-38.562 20.25,-65.937c-1.062,-13.5 10,-25.563 15.25,-18.875c6.812,8.75 11.938,34.313 7.062,55.313c-11.5,49.937 -37.375,52 -41,51.187Z" style="fill:#d81b60;fill-rule:nonzero;stroke:#000;stroke-width:14.7px;"/><path d="M563.062,200.875c1.875,2.438 3.688,5.063 4.438,8c0.812,3 0.437,6.438 -1.562,8.75c-1.375,1.562 -3.25,2.5 -5.125,3.375c-3.562,1.688 -7.125,3.375 -11,4.062c-3.875,0.687 -8.062,0.25 -11.25,-2c-4,-2.875 -5.625,-8 -6.688,-12.75c-1.812,-7.75 -2.937,-15.625 -3.5,-23.562c-0.125,-1.875 -0.188,-3.938 0.688,-5.625c5.312,-10 30.375,15.188 34,19.75l-0.001,0Z" style="fill:#d81b60;fill-rule:nonzero;stroke:#000;stroke-width:14.7px;"/><path d="M581.75,613.25c-36.75,-6.438 -73.625,-20.812 -109.688,-37.188c-8.312,-4 -16.312,-8.188 -24.312,-12.438c-13.25,7.5 -27.5,13.562 -42.375,18.062c39.438,22.062 72.188,34 96.188,41.125c41.062,12.25 57.875,10 61.375,9.5c13.5,-2.062 27.187,-17.375 18.812,-19.062l0,0.001Z" style="fill:#ec407a;fill-rule:nonzero;stroke:#000;stroke-width:14.7px;"/><path d="M120.312,226.812c-4.062,-7.5 -10.125,-26.125 -10.125,-26.125c-10.75,-1.312 -19.562,12.562 -15.625,36.125c2.312,13.562 63.5,167.75 244.375,301.812c23.75,17.625 45.938,31.688 66.375,43.125c0,0 14.375,9.5 34,-0.625c16.625,-8.562 8.375,-17.5 8.375,-17.5c-145.938,-76.875 -245.875,-187.125 -327.375,-336.812Z" style="fill:#f06292;fill-rule:nonzero;stroke:#000;stroke-width:14.7px;"/><path d="M622.812,579.312c-44.187,-14.125 -87.062,-31 -128.062,-51.313c-8.312,8.75 -17.438,16.688 -27.25,23.813c8.688,4.875 17.312,9.562 25.875,14.125c26.938,14.375 134.687,61.25 129.437,13.375Z" style="fill:#ec407a;fill-rule:nonzero;stroke:#000;stroke-width:14.7px;"/><path d="M494.688,528c-146.25,-72.438 -272.125,-185.938 -351.625,-377.562c-20.938,4.625 -18.75,29.188 -15.75,37.187c71.062,189.063 215,294 340.125,364.188c0,0 19.75,10.875 32.812,-5.812c7.812,-10.062 -5.562,-18 -5.562,-18l0,-0.001Z" style="fill:#f06292;fill-rule:nonzero;stroke:#000;stroke-width:14.7px;"/><path d="M654.25,539c-46.312,-13.188 -89.5,-31.5 -129.562,-53.125c-5.099,9.894 -11.081,19.308 -17.875,28.125c32,16.25 65.812,30 101.313,40.312c44.875,12.938 54.562,-13.875 46.125,-15.312l-0.001,0Z" style="fill:#ec407a;fill-rule:nonzero;stroke:#000;stroke-width:14.7px;"/><path d="M181.5,111.437c-5.125,-10.812 -26.75,5.625 -23,22.687c23.312,84.875 131,275.875 348.312,379.875c0,0 17.375,7.625 24,-6.875c6.625,-14.562 -6.062,-21.25 -6.062,-21.25c-228.312,-121.438 -315,-295.375 -343.25,-374.437Z" style="fill:#f06292;fill-rule:nonzero;stroke:#000;stroke-width:14.7px;"/><path d="M685.188,499.937c-52.25,-19.25 -98.938,-40.062 -141.312,-63.5c-0.312,2.438 -0.688,4.875 -1.25,7.125c-2.188,9.438 -5.125,18.5 -8.625,27.187c36.938,18.938 76.688,35.125 119.562,48.562c34.25,9.562 39.625,-16.312 31.625,-19.375l0,0.001Z" style="fill:#ec407a;fill-rule:nonzero;stroke:#000;stroke-width:14.7px;"/><path d="M543.875,436.438c-154.5,-84.938 -232.562,-182 -318.625,-349.562c-10.5,-16.875 -36.062,-1.438 -26.125,16.5c75.875,164.562 156.875,266.688 334.875,367.438c0,0 13.625,5.312 18.875,-10.562c3.312,-10 0.188,-18.812 -9,-23.812l0,-0.002Z" style="fill:#f06292;fill-rule:nonzero;stroke:#000;stroke-width:14.7px;"/><path d="M440.75,775c-17.312,0 -34.875,-0.438 -52.438,-1.438c-108.312,-6 -243.563,-43.25 -284.438,-111.062c-12.813,-21.188 -51.75,-85.75 27.687,-216.375c44.562,-73.25 151.625,-229.75 122.312,-379.25c0,0 -4.062,-14.375 8.75,-19.813c18.938,-8 22,8.25 22,8.25c37.438,174.438 -74.438,333.188 -121.25,410.125c-60.688,99.812 -44.812,149.25 -27.625,177.75c19.875,32.875 104.062,84.812 254.625,93.125c189.25,10.438 305.063,-36.875 316.938,-53.812c0.438,-6.375 -3.688,-13.875 -74.688,-15.375c-19.688,-0.437 -17.875,-29.188 -8,-30.312c28.875,-3.375 83.188,-3.375 108.062,14.625c12.563,9.125 17.812,22.562 12.875,38.188c-14.813,46.812 -146.625,85.375 -304.813,85.375l0.003,-0.001Z" style="fill:#ff80ab;fill-rule:nonzero;stroke:#000;stroke-width:14.7px;"/></svg>